<svg width="155" height="18" viewBox="0 0 155 18" fill="orange" xmlns="http://www.w3.org/2000/svg">
<path d="M120.885 3.52381L122.019 0.933439H114.608L113.691 2.99335C113.62 3.17747 113.491 3.33032 113.328 3.42701C113.151 3.52139 112.954 3.56667 112.757 3.55866H112.699L111.76 5.68827H112.488L111.397 8.21669C111.364 8.31349 111.331 8.41029 111.295 8.50709V8.52645V8.54968L108.967 13.8892C108.839 14.2036 108.77 14.5416 108.764 14.8843C108.759 15.1808 108.828 15.4735 108.964 15.7323C109.087 15.9937 109.268 16.2195 109.491 16.3905C110.201 16.9526 111.069 17.2432 111.953 17.2152H114.953C115.259 17.1804 115.848 17.1417 116.71 17.0333H116.757L117.848 14.4739H117.71C117.361 14.4929 117.012 14.443 116.681 14.3267C116.591 14.293 116.511 14.2357 116.448 14.1602C116.401 14.095 116.376 14.0142 116.379 13.9318C116.382 13.8354 116.403 13.7405 116.441 13.653L119.954 5.68827H121.703L122.678 3.52381H120.885ZM12.3067 10.2146L12.2812 10.2689L10.9138 13.4555C10.8936 13.5108 10.8564 13.5572 10.8084 13.5872C10.717 13.6489 10.6194 13.6995 10.5174 13.7382C10.2456 13.8433 9.95923 13.8996 9.67006 13.9047C9.40306 13.9347 9.13503 13.8589 8.91726 13.6917C8.87362 13.6569 8.85907 13.6298 8.85907 13.6027C8.85928 13.5799 8.86701 13.558 8.88089 13.5407L12.714 4.39502C12.8198 4.23286 12.9754 4.11509 13.154 4.06202C13.4138 3.96254 13.6892 3.91782 13.965 3.93037C14.239 3.91053 14.5125 3.97362 14.7542 4.11236C14.7742 4.13527 14.7925 4.15987 14.8088 4.18593C14.8121 4.19727 14.8121 4.20943 14.8088 4.22078C14.8088 4.22078 14.8088 4.22078 14.7906 4.26337L13.805 6.66014H23.1223L23.7297 5.25847L24.7297 2.87719L24.6716 2.83072C24.3479 2.54807 24.0206 2.30413 23.6969 2.05632C22.9218 1.56437 22.0971 1.16692 21.2385 0.871486C19.2795 0.28536 17.2507 0.0062252 15.2161 0.0428761H14.4887C12.28 -0.00993845 10.0799 0.353158 7.98989 1.11542C6.12425 1.81238 4.96777 2.71069 4.49863 3.79873L0.174563 13.9705C0.0636635 14.2379 0.00430326 14.5262 0 14.8185C0.0059108 15.1997 0.134254 15.5673 0.363673 15.86C0.647034 16.2201 0.999108 16.5118 1.3965 16.7158C2.62208 17.4592 4.52045 17.7999 6.99343 17.7999H7.74259C9.63715 17.7775 11.5275 17.604 13.3977 17.2811C15.3413 16.9676 17.2651 16.5279 19.1583 15.9646H19.1983L19.8056 14.5165C19.8444 14.3848 19.8881 14.2557 19.9365 14.1292L20.413 13.0606L21.6094 10.2146H12.3067ZM39.1276 9.09564L39.233 8.86719L39.7858 7.60104C39.8269 7.47664 39.8478 7.34571 39.8476 7.21384C39.8477 7.00082 39.784 6.79332 39.6658 6.62142C39.5239 6.41343 39.3462 6.23605 39.1421 6.0987C38.9503 5.95593 38.7426 5.83889 38.5239 5.75022C37.4328 5.24686 35.9491 4.97582 34.0907 4.97582H32.4542C31.8141 4.97582 31.2431 5.01841 30.6358 5.05326C29.5165 5.15803 28.4108 5.38906 27.3373 5.74248C26.7022 5.95551 26.0921 6.24521 25.5189 6.60593C25.114 6.84426 24.7849 7.20549 24.5734 7.64363L22.3913 12.5224L21.8604 13.7227L21.2639 15.1011C21.2465 15.1785 21.238 15.2578 21.2385 15.3373C21.2438 15.6188 21.3475 15.888 21.5294 16.0924C21.7679 16.3584 22.0534 16.5716 22.3695 16.7196C22.4057 16.7417 22.445 16.7573 22.4859 16.7661L22.5732 16.7971C23.6642 17.3353 25.1516 17.5715 26.97 17.5715H28.6429C29.2498 17.5841 29.8569 17.5596 30.4612 17.4979C31.5809 17.3977 32.6876 17.1732 33.7634 16.828C35.2181 16.3169 36.1309 15.74 36.52 15.0314L38.4548 10.6018L39.1276 9.09564ZM32.7378 7.93403L30.4358 13.1419L29.8503 14.5358C29.7903 14.6263 29.7009 14.6898 29.5993 14.7139C29.405 14.7694 29.204 14.7942 29.0029 14.7875C28.8237 14.7867 28.6453 14.762 28.4719 14.7139C28.4444 14.6934 28.4189 14.67 28.3956 14.6442C28.3943 14.6352 28.3943 14.6261 28.3956 14.6171L30.6722 9.4325L31.2904 8.03083C31.3122 7.97663 31.3886 7.9108 31.5377 7.86047C31.7454 7.8033 31.9596 7.77724 32.1741 7.78303C32.3309 7.77908 32.4874 7.79731 32.6396 7.83723C32.673 7.84987 32.7047 7.86677 32.7342 7.88757C32.7342 7.88757 32.7342 7.90693 32.7342 7.9108C32.7338 7.924 32.7286 7.93651 32.7196 7.94565L32.7378 7.93403ZM93.373 7.12478C93.3578 6.88472 93.2863 6.65255 93.1649 6.44959C93.0436 6.24663 92.8763 6.07937 92.6784 5.96318C92.5614 5.90695 92.4494 5.83956 92.3438 5.76184C91.431 5.24686 90.049 4.98743 88.2343 4.98743H87.6815C86.3398 4.98886 85.001 5.11845 83.6811 5.37463C82.5918 5.59071 81.5204 5.89887 80.4771 6.29617C79.9786 6.48416 79.4926 6.70796 79.0225 6.96603H78.9934L77.986 9.21954H84.8485L85.3067 8.13151C85.3292 8.08497 85.3648 8.04707 85.4086 8.02309C85.4851 7.97564 85.5654 7.93547 85.6486 7.90306C85.8402 7.83333 86.0433 7.80696 86.245 7.82562C86.3382 7.81874 86.4318 7.81874 86.525 7.82562C86.5872 7.83289 86.6451 7.86302 86.6887 7.9108H86.7105C86.7326 7.91844 86.7526 7.93174 86.7687 7.94952C86.7687 7.94952 86.7687 7.94952 86.7687 7.98437C86.7711 8.00235 86.7711 8.0206 86.7687 8.03858L86.2195 9.32796L83.5866 9.96297L79.6516 10.8845C78.8194 11.0907 78.017 11.415 77.2659 11.8486C76.7478 12.1398 76.2734 12.5117 75.8585 12.9522C75.6028 13.2169 75.3825 13.5179 75.2039 13.8466C75.052 14.1816 74.9689 14.5472 74.9602 14.9191C74.9671 15.2302 75.0465 15.5346 75.1912 15.805C75.3359 16.0753 75.5415 16.3031 75.7894 16.4679V16.5067L75.8258 16.5376C76.7022 17.1843 78.0878 17.5211 80.0189 17.5211C80.5915 17.4915 81.1615 17.4191 81.7245 17.3043C82.0257 17.2546 82.3234 17.1835 82.6155 17.0913C82.7182 17.0575 82.819 17.0174 82.9174 16.9713L82.8374 17.1843H89.1035L93.2566 7.68622C93.3333 7.51033 93.373 7.31872 93.373 7.12478ZM84.2448 13.9395C84.2016 13.9867 84.1496 14.0236 84.0921 14.0479C83.9451 14.1147 83.793 14.1678 83.6375 14.2067L83.4484 14.2532H83.3902H83.372C82.9982 14.2944 82.6209 14.2261 82.281 14.0557C82.2337 14.0289 82.1937 13.9895 82.165 13.9413C82.1363 13.8931 82.1199 13.8378 82.1173 13.7808C82.1193 13.7157 82.1355 13.6521 82.1646 13.5949C82.3064 13.3006 82.6846 13.0141 83.3393 12.8205L83.5684 12.7392C83.9866 12.6618 84.4375 12.5572 84.8885 12.4488L84.2448 13.9395ZM79.8225 0.941183H73.0146L72.8909 1.22771L72.6473 1.77754L71.5053 4.39889H78.3424L79.8225 0.941183ZM69.6397 3.79098L69.7452 3.54317L70.8907 0.941183H64.1446L62.1735 5.44433C61.1134 5.23076 60.0375 5.11931 58.9586 5.11134H58.3877C57.2217 5.11103 56.0682 5.36537 54.9982 5.85864C53.9072 6.34264 53.2381 6.96216 52.8853 7.68622L49.765 14.8146C49.6676 15.016 49.6153 15.2386 49.6122 15.4651C49.6216 15.6934 49.6857 15.9154 49.7983 16.1099C49.911 16.3044 50.0685 16.465 50.2559 16.5764C50.4093 16.7054 50.5781 16.8122 50.7578 16.8939C51.5269 17.1867 52.342 17.3182 53.1581 17.2811C54.0163 17.2811 54.7946 17.2385 55.4856 17.192C56.1838 17.1068 56.7148 17.0216 57.1221 16.9752C57.2663 16.9984 57.4006 17.0672 57.5076 17.1726H57.5294H63.7773L64.141 16.3363L69.1888 4.77835L69.6397 3.79098ZM60.9479 8.21669L58.3004 14.2028C58.2261 14.3563 58.1058 14.479 57.9585 14.5513C57.7519 14.6395 57.5301 14.6804 57.3076 14.6713C57.1508 14.6794 56.9941 14.6558 56.8457 14.6016C56.8117 14.5864 56.7817 14.5624 56.7584 14.5319C56.7405 14.5093 56.7314 14.4802 56.733 14.4506C56.7372 14.3934 56.7533 14.3378 56.7802 14.288L59.4387 8.16635C59.543 8.01132 59.6851 7.8895 59.8496 7.814C60.0339 7.73616 60.2297 7.69419 60.4279 7.6901C60.5226 7.68616 60.6173 7.69925 60.7079 7.72882C60.7775 7.75242 60.8376 7.80013 60.8788 7.86434C60.9051 7.88717 60.926 7.9162 60.9399 7.94914C60.9538 7.98207 60.9603 8.018 60.9588 8.05407C60.9646 8.1082 60.9634 8.16291 60.9552 8.21669H60.9479ZM70.7671 6.05224L70.7453 6.10644L65.8975 17.2036H72.7455L77.6114 6.05224H70.7671ZM109.913 7.63976C109.951 7.50544 109.971 7.36585 109.971 7.22546C109.972 6.97866 109.895 6.73863 109.753 6.54398C109.662 6.36855 109.528 6.22366 109.364 6.1258C108.771 5.63793 107.836 5.4211 106.498 5.4211C105.512 5.42177 104.527 5.48642 103.549 5.6147L101.541 5.84702C101.05 5.89736 100.737 5.92446 100.617 5.92446C100.544 5.92582 100.471 5.91803 100.399 5.90123C100.355 5.89212 100.313 5.87076 100.279 5.83928C100.257 5.82569 100.239 5.80723 100.224 5.78517C100.21 5.76311 100.2 5.73797 100.195 5.7115C100.193 5.70261 100.193 5.69328 100.195 5.6844L100.261 5.54887H95.9514L90.8236 17.2036H97.588L101.443 8.43352C101.518 8.26842 101.647 8.13871 101.807 8.06955C102.009 7.975 102.229 7.93002 102.45 7.93791C102.588 7.92983 102.726 7.95497 102.854 8.01147C102.887 8.02758 102.914 8.05306 102.934 8.08504C102.95 8.11159 102.957 8.14272 102.956 8.1741C102.954 8.23744 102.939 8.29959 102.912 8.35608L99.0099 17.2036H105.771L107.491 13.2542L107.523 13.1574V13.0993L109.895 7.67848L109.913 7.63976ZM51.267 9.03368L52.9071 5.28558H52.7689C52.412 5.27784 52.0551 5.29206 51.6997 5.32817C51.0888 5.37463 50.6087 5.41723 50.1359 5.50241C49.7465 5.60912 49.3629 5.73838 48.9867 5.88961L48.874 5.52951H42.3933L41.2623 8.13151C41.228 8.24345 41.1879 8.35332 41.1423 8.46063L40.6295 9.57577L39.9022 11.2175L37.9783 15.6471C37.9783 15.6819 37.9347 15.7206 37.9093 15.7671L37.2874 17.192H44.1317L47.0665 10.4934C47.2053 10.2236 47.3953 9.9875 47.6244 9.80017C47.8536 9.61285 48.1169 9.4784 48.3976 9.4054C49.3107 9.11839 50.2608 8.9877 51.2124 9.0182L51.267 9.03368Z" fill="white"/>
<path d="M130.763 15.6587L125.105 16.2627C122.253 16.5725 119.362 16.89 118.293 17.0371L130.443 17.6024C130.419 17.4385 130.405 17.2728 130.403 17.1068C130.409 16.5998 130.533 16.1022 130.763 15.6587Z" fill="white"/>
<path d="M134.772 9.57187C134.751 9.44227 134.761 9.30901 134.801 9.18467C134.956 8.75152 135.174 8.34659 135.445 7.98435V7.96112C135.446 7.94954 135.446 7.93785 135.445 7.92627C134.649 7.99597 132.07 8.21667 129.463 8.44899C126.953 8.6697 124.404 8.90202 123.426 9.01431L134.681 9.75386L134.743 9.63383V9.57187H134.772Z" fill="white"/>
<path d="M137.048 1.11127C137.125 1.01938 137.209 0.933948 137.298 0.855713C136.058 0.921537 129.243 1.30099 129.098 1.35907L136.626 1.81597C136.626 1.77725 136.662 1.73466 136.68 1.69981C136.776 1.48616 136.9 1.28802 137.048 1.11127Z" fill="white"/>
<path d="M153.45 7.9723C153.046 7.80957 152.622 7.70665 152.192 7.66641C152.068 7.66641 151.464 7.6122 151.464 7.60833C151.162 7.60833 150.766 7.60833 150.701 7.60833C150.125 7.61053 149.551 7.66233 148.984 7.76321C148.715 7.81229 148.45 7.87692 148.188 7.95681C147.911 8.04587 147.798 8.05361 147.58 8.11944C147.255 8.23905 146.943 8.39615 146.649 8.58795L146.351 8.76993C146.195 8.85125 146.042 8.89384 145.947 8.93643C145.76 8.96501 145.585 9.05268 145.445 9.18811L145.405 9.22296L145.064 9.55208L145.562 8.94805C145.391 8.97142 145.229 9.03926 145.089 9.14552C144.875 9.31589 144.511 9.65275 144.511 9.65275C144.539 9.58079 144.572 9.51093 144.609 9.44366C144.637 9.39601 144.669 9.35071 144.704 9.30814C144.802 9.19198 145.067 8.95966 145.067 8.95966C144.946 8.96617 144.824 8.97909 144.704 8.99838C144.6 9.00526 144.497 9.02608 144.398 9.06033L144.231 9.02936C144.096 9.02082 143.968 8.96498 143.867 8.87061C143.799 8.77712 143.737 8.6788 143.682 8.57633C143.649 8.52212 143.594 8.49115 143.58 8.43307C143.579 8.42662 143.579 8.42016 143.58 8.41371C143.595 8.28249 143.62 8.15292 143.656 8.02651C143.655 8.00975 143.655 7.99293 143.656 7.97617C143.623 7.98393 143.588 7.98393 143.554 7.97617C143.496 7.95308 143.441 7.92183 143.391 7.88324V7.85614C143.427 7.79419 143.511 7.67028 143.58 7.67028H143.605C143.624 7.67846 143.645 7.67846 143.663 7.67028C143.71 7.66207 143.756 7.6464 143.798 7.62382C143.798 7.62382 143.936 7.41086 143.94 7.39924C143.944 7.38763 143.94 7.37988 143.94 7.37988L143.667 7.32567C143.667 7.32567 143.514 7.17466 143.529 7.12433C143.538 7.12107 143.549 7.12107 143.558 7.12433H143.627C143.715 7.1509 143.805 7.16394 143.896 7.16305C143.965 7.16414 144.033 7.15634 144.1 7.13982L144.198 7.05463C144.198 7.02753 144.198 6.99268 144.14 6.94622C144.043 6.85857 143.959 6.7569 143.889 6.6442L143.911 6.66356C144.06 6.74842 144.221 6.80725 144.387 6.8378L144.634 6.77198L144.707 6.72551L144.773 6.68679C144.773 6.65969 144.773 6.63646 144.729 6.6171C144.672 6.59288 144.619 6.55887 144.573 6.51642C144.492 6.44575 144.416 6.36805 144.347 6.2841C144.393 6.31799 144.44 6.34902 144.489 6.37703C144.624 6.44314 144.767 6.48875 144.915 6.51255L144.987 6.45447C145.045 6.41011 145.11 6.3797 145.18 6.36542H145.318L145.449 6.34605H145.642L145.784 6.29959L146.511 6.17181C146.751 6.12535 146.987 6.07889 147.195 6.02855C147.361 5.99404 147.524 5.9435 147.682 5.87754C148.024 5.78289 148.356 5.65322 148.675 5.49034C149.073 5.27431 149.46 5.03651 149.835 4.77789C150.135 4.60261 150.425 4.40867 150.704 4.19709C150.861 4.07027 151.012 3.93456 151.155 3.79053C151.294 3.66517 151.416 3.52062 151.519 3.36073C151.702 3.04402 151.799 2.67943 151.799 2.30755C151.799 2.21462 151.799 2.12556 151.799 2.04425C151.764 1.86504 151.709 1.69088 151.635 1.5254C151.535 1.27624 151.371 1.06176 151.162 0.905879C150.958 0.761476 150.723 0.672427 150.479 0.646455C150.339 0.626781 150.198 0.616435 150.057 0.615479C149.779 0.636271 149.503 0.686864 149.235 0.766487C148.919 0.87133 148.61 1.00074 148.311 1.15369C147.86 1.3903 147.436 1.67993 147.046 2.01715C146.478 2.45034 145.962 2.95475 145.507 3.51949C145.087 3.99556 144.712 4.51431 144.387 5.06829L144.347 5.13799L144.22 5.26189C144.137 5.3021 144.067 5.36827 144.02 5.45162V5.47098C143.912 5.5328 143.815 5.61402 143.733 5.71104C143.733 5.71104 143.674 5.77687 143.649 5.80785C143.511 5.89622 143.381 5.99728 143.26 6.10986C143.133 6.164 143.011 6.23144 142.896 6.31121C142.874 6.31121 142.823 6.33444 142.787 6.34993C142.697 6.39676 142.605 6.43813 142.511 6.47383C142.325 6.53191 142.129 6.55902 141.907 6.63646C141.685 6.7139 141.278 6.93073 141.18 6.94234C141.081 6.95396 140.943 6.94234 140.874 6.9617H140.681C140.529 6.99264 140.378 7.03403 140.23 7.08561L140.081 7.11271C140.037 7.11594 139.992 7.11594 139.947 7.11271C139.859 7.08174 139.779 7.0314 139.699 7.0043C139.565 6.95783 139.478 6.91137 139.445 6.80682C139.456 6.76238 139.456 6.71575 139.445 6.6713C139.419 6.62484 139.405 6.62097 139.405 6.62097C139.431 6.5849 139.45 6.54427 139.463 6.50094C139.461 6.45367 139.454 6.40681 139.441 6.36154C139.28 6.54052 139.102 6.7014 138.91 6.84167C138.796 6.93167 138.662 6.99019 138.521 7.01204C138.458 7.01877 138.395 7.01877 138.332 7.01204L138.387 7.17079C138.28 7.20256 138.17 7.21692 138.059 7.21339C137.981 7.21516 137.903 7.20604 137.827 7.18628C137.725 7.15143 137.747 7.10497 137.747 7.10497L138.234 6.98494L138.303 6.85329L138.183 6.741L137.728 6.63258L138.092 6.4777L137.296 6.17181C137.304 6.32174 137.329 6.47001 137.372 6.61322L137.332 6.66356C137.3 6.70304 137.269 6.74441 137.241 6.78746C137.187 6.88497 137.138 6.98582 137.096 7.08948C137.096 7.08948 137.016 7.21339 137.008 7.23275C136.961 7.32955 136.917 7.40311 136.874 7.48055C136.874 7.48055 136.754 7.66641 136.75 7.66641C136.62 7.85203 136.498 8.04459 136.386 8.24334C136.275 8.42506 136.183 8.61996 136.114 8.82414C136.071 8.9398 136.059 9.06551 136.077 9.18811C136.134 9.383 136.124 9.59299 136.048 9.78053L135.975 9.83086L135.903 9.8812L135.754 9.98962L135.681 10.0477L135.535 10.1677C135.484 10.2064 135.441 10.249 135.394 10.2916L135.328 10.3536L135.204 10.4891L135.146 10.5588L135.044 10.6943C135.018 10.7299 134.993 10.7674 134.972 10.8066C134.929 10.8761 134.894 10.95 134.866 11.0273C134.804 11.1785 134.765 11.3392 134.75 11.5036C134.75 11.5578 134.779 11.6004 134.779 11.6623C134.783 11.8597 134.767 12.057 134.732 12.2509C134.732 12.3838 134.708 12.5156 134.659 12.6381C134.651 12.6481 134.643 12.6571 134.633 12.6652C134.618 12.6796 134.603 12.6951 134.59 12.7116C134.755 12.659 134.927 12.6316 135.099 12.6303C135.189 12.6294 135.279 12.6372 135.368 12.6536C135.612 12.7039 135.775 12.793 135.801 12.9943H135.75C135.75 13.0446 135.79 13.1647 135.845 13.184C135.866 13.1376 136.008 13.064 136.026 13.0446C136.043 13.0311 136.057 13.0155 136.07 12.9982L136.099 12.9401C136.141 12.8991 136.189 12.8663 136.241 12.8433C136.403 12.6973 136.584 12.5773 136.779 12.4871H136.856C136.924 12.4143 137.012 12.3645 137.106 12.3438H137.128C137.151 12.341 137.174 12.341 137.197 12.3438C137.245 12.3446 137.291 12.3623 137.328 12.3941C137.35 12.4638 137.459 12.4212 137.517 12.4445C137.576 12.4677 137.605 12.5374 137.656 12.5839C137.794 12.7116 137.965 12.8046 138.092 12.9323L138.154 12.9943C138.228 13.0928 138.312 13.1824 138.405 13.2615C138.457 13.3026 138.502 13.3523 138.539 13.4086C138.586 13.4504 138.639 13.4832 138.696 13.5054C138.717 13.5269 138.736 13.5502 138.754 13.5751V13.6719C138.728 13.7377 138.703 13.8074 138.754 13.85C138.751 13.8912 138.743 13.9317 138.728 13.97C138.719 14.0173 138.713 14.0652 138.71 14.1133C138.71 14.1404 138.71 14.1675 138.71 14.1946C138.71 14.2217 138.71 14.303 138.71 14.3572C138.71 14.4115 138.71 14.3998 138.71 14.4192C138.706 14.4824 138.706 14.5458 138.71 14.6089C138.719 14.717 138.74 14.8235 138.772 14.9264C138.946 15.3782 139.192 15.7947 139.499 16.1577C139.801 16.5172 140.147 16.8311 140.529 17.0909C140.897 17.3992 141.31 17.6424 141.751 17.8111C142.075 17.9154 142.412 17.9689 142.751 17.9698C143.049 17.9696 143.346 17.9279 143.634 17.8459C143.814 17.7966 143.987 17.7211 144.147 17.6213C144.256 17.5633 144.376 17.5091 144.467 17.4549C144.729 17.3007 144.958 17.0927 145.144 16.8431L145.238 16.6998L145.278 16.6224L145.311 16.5449L145.34 16.4675C145.34 16.4404 145.358 16.4133 145.365 16.3862C145.386 16.3474 145.4 16.3056 145.409 16.2623C145.409 16.2352 145.409 16.2081 145.409 16.1771C145.409 16.1461 145.409 16.1151 145.409 16.088C145.431 15.4685 145.02 15.1588 144.656 14.9264C144.293 14.6941 143.929 14.5121 143.565 14.3147C143.54 14.3147 143.26 14.152 142.812 13.9275C142.556 13.781 142.291 13.6516 142.02 13.5403H141.991H141.965H141.943H141.921H141.903H141.874H141.772H141.754H141.725C141.595 13.4696 141.455 13.4212 141.311 13.397C141.243 13.3798 141.178 13.3524 141.118 13.3157C141.085 13.2731 141.074 13.2305 141.038 13.184C140.87 13.184 140.561 13.2653 140.369 13.2808H140.165H140.139H140.121H140.096H140.07H140.052H140.027H139.994C140.159 13.1203 140.353 12.9977 140.565 12.9207C140.627 12.9207 140.645 12.8975 140.634 12.8936H140.489C140.327 12.9167 140.171 12.9733 140.03 13.0601C139.985 13.0928 139.936 13.1188 139.885 13.1376C139.919 13.0903 139.955 13.0451 139.994 13.002C140.094 12.9153 140.203 12.84 140.318 12.7775C140.476 12.756 140.621 12.67 140.721 12.5374V12.518C140.721 12.518 140.612 12.518 140.532 12.518H140.303C140.22 12.5277 140.138 12.5486 140.059 12.58L139.787 12.6962L139.318 12.8781L139.259 12.8975C139.436 12.7284 139.636 12.5899 139.852 12.4871C140.022 12.3795 140.206 12.2998 140.398 12.2509C140.431 12.2412 140.466 12.2412 140.5 12.2509V12.1734C140.481 12.1407 140.471 12.1032 140.471 12.065C140.471 12.0268 140.481 11.9893 140.5 11.9566C140.544 11.8868 140.6 11.8254 140.663 11.7746C140.866 11.6459 141.082 11.542 141.307 11.4649C141.467 11.3913 141.631 11.3216 141.787 11.2596C141.943 11.1977 142.125 11.128 142.278 11.0583C142.431 10.9886 142.583 10.8918 142.729 10.8337C142.884 10.7296 143.059 10.6659 143.242 10.6479C143.46 10.6479 143.925 10.6091 144.234 10.5704L144.558 10.5278C144.719 10.492 144.882 10.4675 145.045 10.4543C145.155 10.4543 145.224 10.4852 145.358 10.493C145.481 10.4889 145.604 10.5046 145.722 10.5394C145.875 10.5886 146.025 10.6508 146.169 10.7253C146.36 10.8629 146.568 10.9711 146.787 11.0467C147.677 11.2673 148.592 11.3546 149.504 11.3061H149.548C149.938 11.2967 150.328 11.2643 150.715 11.2093C151.228 11.1462 151.736 11.0374 152.232 10.8841C152.85 10.7391 153.404 10.3745 153.803 9.85022C153.958 9.62112 154.059 9.35545 154.097 9.07582C154.142 8.83869 154.1 8.5924 153.979 8.38729C153.859 8.18218 153.67 8.03374 153.45 7.9723Z" fill="white"/>
<path d="M137.221 4.86325C137.256 5.07299 137.337 5.27089 137.458 5.44018C137.586 5.62844 137.763 5.77252 137.967 5.85448C138.232 5.96367 138.516 6.00864 138.8 5.98613H138.913C138.913 5.98613 138.771 5.92418 138.549 5.84674C138.436 5.81043 138.326 5.76244 138.222 5.70347H138.902C138.686 5.67432 138.472 5.62376 138.265 5.55246L138.134 5.48277L138.676 5.52536C138.65 5.44554 138.628 5.36408 138.611 5.28142C138.706 5.30383 138.804 5.31551 138.902 5.31627C139.248 5.30717 139.587 5.20652 139.888 5.02335C140.189 4.84019 140.442 4.58026 140.625 4.26696C140.985 3.85339 141.289 3.38808 141.527 2.88465C141.583 2.77081 141.632 2.65309 141.673 2.53229C141.805 2.14541 141.881 1.73936 141.898 1.3281C141.903 1.05749 141.825 0.792551 141.676 0.573058C141.549 0.337267 141.344 0.159537 141.102 0.0735682C140.956 0.0319753 140.806 0.00730962 140.655 0C140.42 0.00456676 140.186 0.0330921 139.956 0.0851842C139.375 0.23345 138.847 0.555954 138.433 1.01447C138.351 1.10138 138.279 1.19746 138.218 1.301C138.157 1.39271 138.101 1.48841 138.051 1.58752C137.865 1.96391 137.701 2.35181 137.56 2.74913C137.498 2.92337 137.396 3.27185 137.396 3.27572C137.396 3.27959 137.327 3.54289 137.32 3.56225C137.222 3.88311 137.181 4.22059 137.2 4.55736C137.199 4.6598 137.206 4.76216 137.221 4.86325Z" fill="white"/>
<path d="M135.133 13.819C135.165 13.7338 135.264 13.6331 135.3 13.5441C135.26 13.5441 135.271 13.4279 135.3 13.3892C135.125 13.2665 134.926 13.1883 134.718 13.1607C134.551 13.1324 134.381 13.1457 134.22 13.1995L134.074 13.273C134.208 13.2444 134.346 13.2366 134.482 13.2498H134.5C134.918 13.3079 134.998 13.5789 134.998 13.5789C134.821 13.5127 134.64 13.461 134.456 13.424H134.413C134.231 13.4185 134.049 13.4341 133.871 13.4705L133.471 13.5983C133.737 13.5633 134.006 13.5543 134.274 13.5712C134.31 13.577 134.345 13.5861 134.38 13.5983C134.529 13.6624 134.663 13.7632 134.769 13.8925C134.621 13.7887 134.451 13.7249 134.274 13.7067C134.227 13.7067 134.176 13.7067 134.118 13.7067C133.83 13.6985 133.543 13.7458 133.271 13.8461C133.045 13.9146 132.834 14.029 132.649 14.1829L132.601 14.2294C132.39 14.4336 132.21 14.6729 132.07 14.938C131.813 15.3804 131.665 15.8855 131.641 16.4055C131.636 16.6407 131.663 16.8755 131.721 17.1024C131.764 17.3618 131.894 17.5955 132.088 17.759C132.282 17.9225 132.525 18.0044 132.772 17.9891C133.113 18.031 133.457 17.9515 133.75 17.763C134.044 17.5745 134.27 17.2877 134.394 16.9476C134.518 16.6455 134.605 16.3784 134.714 16.0918C134.714 16.0918 134.816 15.8479 134.863 15.7046C134.911 15.5614 134.958 15.4801 134.991 15.3833C135.1 15.1231 135.174 14.8482 135.213 14.5663C135.218 14.52 135.218 14.4732 135.213 14.4269C135.196 14.3162 135.155 14.2114 135.093 14.121C135.093 14.0188 135.106 13.9172 135.133 13.819Z" fill="white"/>
<path d="M149.829 4.03843L149.793 3.99971L149.978 3.82935L150.015 3.87194C150.015 3.87194 150.015 3.8913 150.051 3.87194C149.989 3.93776 149.913 3.98423 149.829 4.03843Z" fill="black"/>
<path d="M150.197 3.79101H150.095L150.059 3.74454L150.193 3.62451C150.219 3.65611 150.247 3.68586 150.277 3.71357L150.197 3.79101Z" fill="black"/>
<path d="M150.483 3.5624C150.45 3.51981 150.424 3.47721 150.406 3.45011L150.548 3.33008C150.558 3.3452 150.569 3.35945 150.581 3.37267H150.621H150.675C150.614 3.44237 150.552 3.50432 150.483 3.5624Z" fill="black"/>
<path d="M150.747 3.30677H150.645L150.605 3.26805L150.704 3.18286L150.776 3.26805L150.747 3.30677Z" fill="black"/>
<path d="M150.986 3.03967C150.968 3.06919 150.946 3.09647 150.923 3.12098L150.863 3.04742L150.989 2.94287L151.011 2.97385L150.986 3.03967Z" fill="black"/>
<path d="M151.145 2.02487C151.05 2.01909 150.954 2.03088 150.862 2.05972C150.825 2.05972 150.785 2.08682 150.789 2.1178C150.793 2.14877 150.862 2.1178 150.898 2.14103C150.997 2.14079 151.094 2.16603 151.182 2.2146C151.188 2.33512 151.18 2.45594 151.16 2.57469C151.065 2.46367 150.939 2.38746 150.8 2.35688C150.662 2.3263 150.518 2.3429 150.389 2.40433C150.345 2.40433 150.309 2.43917 150.313 2.47402C150.316 2.50887 150.393 2.47402 150.429 2.47402C150.531 2.45769 150.636 2.47579 150.727 2.52578C150.819 2.57578 150.894 2.65516 150.942 2.75281C150.836 2.83412 150.724 2.92705 150.684 2.9619C150.569 2.84715 150.425 2.77232 150.27 2.74741C150.114 2.72249 149.955 2.7487 149.814 2.8225C149.767 2.8225 149.724 2.8651 149.731 2.89994C149.738 2.93479 149.822 2.89994 149.865 2.89994C149.974 2.87915 150.087 2.8926 150.189 2.93867C150.291 2.98473 150.378 3.06142 150.44 3.15937C150.327 3.26004 150.196 3.36846 150.149 3.40718C150.011 3.2921 149.845 3.22388 149.67 3.21145C149.495 3.19901 149.321 3.24294 149.171 3.33748C149.12 3.33748 149.076 3.38782 149.083 3.42267C149.091 3.45751 149.185 3.42267 149.229 3.42267C149.367 3.39169 149.745 3.36071 149.887 3.65499L149.523 3.98411C149.368 3.87693 149.187 3.81991 149.002 3.81991C148.816 3.81991 148.635 3.87693 148.48 3.98411C148.425 4.00734 148.382 4.04219 148.392 4.07703C148.403 4.11188 148.498 4.07703 148.545 4.0538C148.691 4.01121 149.087 3.95313 149.254 4.23966C149.153 4.32872 149.018 4.43713 148.891 4.55716L148.865 4.5378C148.665 4.44235 148.443 4.4074 148.225 4.43676C148.007 4.46612 147.801 4.55866 147.629 4.7043C147.606 4.71621 147.585 4.73189 147.567 4.75076L147.363 4.71979C148.534 3.65577 149.774 2.68022 151.073 1.80029C151.103 1.87285 151.127 1.94797 151.145 2.02487Z" fill="black"/>
<path d="M150.502 1.52172C150.512 1.52958 150.524 1.53382 150.536 1.53382C150.549 1.53382 150.561 1.52958 150.571 1.52172C150.581 1.51675 150.589 1.50907 150.594 1.4995C150.6 1.48994 150.603 1.47888 150.604 1.46751C150.605 1.45208 150.605 1.43648 150.604 1.42105C150.604 1.39782 150.604 1.37458 150.578 1.35522H150.607C150.68 1.38407 150.75 1.42175 150.815 1.46751L150.866 1.51011C150.863 1.52291 150.863 1.53602 150.866 1.54883C150.861 1.57835 150.861 1.60835 150.866 1.63788C150.866 1.63788 150.866 1.63788 150.866 1.65724L150.593 1.83923C150.575 1.80435 150.55 1.77399 150.52 1.75017C150.512 1.74541 150.504 1.74291 150.495 1.74291C150.486 1.74291 150.477 1.74541 150.469 1.75017C150.46 1.75511 150.453 1.76227 150.447 1.77104C150.441 1.77981 150.438 1.78992 150.436 1.80051C150.43 1.84546 150.43 1.89108 150.436 1.93603L150.102 2.17222C150.079 2.13885 150.052 2.1089 150.022 2.08316C150.014 2.0784 150.005 2.0759 149.996 2.0759C149.987 2.0759 149.979 2.0784 149.971 2.08316C149.962 2.08698 149.955 2.09344 149.95 2.1017C149.945 2.10997 149.942 2.11969 149.942 2.12963C149.94 2.17943 149.946 2.22925 149.96 2.27676L149.531 2.5904C149.505 2.5904 149.469 2.53619 149.436 2.51296C149.429 2.50918 149.421 2.50722 149.413 2.50722C149.405 2.50722 149.396 2.50918 149.389 2.51296C149.369 2.52474 149.353 2.54402 149.345 2.56716C149.343 2.58517 149.343 2.60336 149.345 2.62137C149.357 2.6526 149.372 2.68245 149.389 2.71043L148.88 3.09763C148.833 3.08729 148.788 3.06615 148.749 3.03568C148.749 3.03568 148.694 3.0047 148.676 3.01244C148.654 3.02675 148.638 3.04861 148.629 3.0744C148.646 3.08397 148.665 3.09175 148.684 3.09763C148.7 3.13168 148.721 3.16299 148.745 3.19056C148.513 3.37641 148.276 3.57776 148.04 3.76749C147.979 3.73664 147.916 3.71201 147.851 3.69392C147.839 3.69046 147.826 3.69046 147.814 3.69392C147.805 3.69866 147.796 3.70563 147.789 3.71433C147.782 3.72303 147.777 3.73325 147.774 3.74425C147.773 3.75968 147.773 3.77529 147.774 3.79072C147.773 3.7997 147.773 3.80884 147.774 3.81782C147.793 3.85125 147.814 3.88357 147.836 3.91462C147.589 4.12371 147.32 4.37152 147.058 4.61158C146.877 4.56304 146.71 4.46571 146.574 4.32893C146.752 4.17405 146.938 4.02304 147.109 3.87977C147.114 3.91169 147.122 3.94287 147.134 3.9727V3.99593C147.147 4.00746 147.162 4.01546 147.178 4.01917H147.203C147.212 4.01611 147.219 4.01103 147.226 4.00432C147.232 3.9976 147.237 3.98944 147.24 3.98045C147.244 3.96394 147.244 3.94662 147.24 3.93011C147.24 3.86429 147.24 3.80233 147.258 3.74038C147.512 3.53129 147.771 3.32221 148.025 3.12473C148.029 3.1541 148.036 3.1828 148.047 3.20992L148.065 3.23315C148.076 3.23594 148.087 3.23594 148.098 3.23315C148.109 3.2361 148.12 3.2361 148.131 3.23315C148.141 3.22874 148.15 3.2213 148.156 3.21169C148.163 3.20209 148.167 3.19073 148.167 3.17894C148.181 3.11006 148.189 3.04015 148.193 2.96985L148.749 2.55168C148.755 2.58423 148.766 2.61557 148.782 2.6446C148.79 2.66332 148.804 2.67838 148.822 2.6872C148.828 2.69093 148.836 2.69288 148.844 2.69288C148.851 2.69288 148.859 2.69093 148.865 2.6872C148.905 2.66396 148.905 2.58652 148.905 2.58652V2.42777L149.411 2.1335C149.423 2.16673 149.442 2.19699 149.465 2.22255H149.491C149.505 2.22633 149.52 2.22633 149.535 2.22255C149.546 2.21721 149.555 2.20847 149.562 2.19744C149.568 2.18642 149.571 2.1736 149.571 2.1606C149.574 2.11292 149.574 2.06502 149.571 2.01734L149.975 1.74243C149.995 1.78474 150.029 1.81871 150.069 1.83923C150.083 1.843 150.098 1.843 150.113 1.83923C150.124 1.83388 150.133 1.82514 150.14 1.81411C150.146 1.80309 150.149 1.79027 150.149 1.77727C150.153 1.7568 150.153 1.7358 150.149 1.71532L150.127 1.65337C150.233 1.5798 150.345 1.5101 150.451 1.44041C150.464 1.47003 150.481 1.49743 150.502 1.52172Z" fill="black"/>
<path d="M146.399 3.92622C146.67 3.63661 146.861 3.27377 146.952 2.87691C147.083 2.75301 147.221 2.64072 147.356 2.53617C147.428 2.47035 147.53 2.38904 147.647 2.29998C147.613 2.5292 147.543 2.7506 147.439 2.95435C147.403 3.02405 147.276 3.16344 147.323 3.18667C147.37 3.2099 147.432 3.13246 147.486 3.05502C147.723 2.7825 147.885 2.44649 147.956 2.08315C148.101 1.98095 148.252 1.88662 148.407 1.80049C148.387 1.98821 148.339 2.17133 148.265 2.34257C148.236 2.4084 148.123 2.54392 148.17 2.56328C148.217 2.58264 148.268 2.5052 148.319 2.43163C148.471 2.20914 148.579 1.95624 148.636 1.6882C148.774 1.62238 148.916 1.55655 149.061 1.4946C149.045 1.61069 149.018 1.72481 148.981 1.83534C148.956 1.90116 148.861 2.03668 148.908 2.0483C148.956 2.05992 148.999 1.99022 149.043 1.91665C149.132 1.76332 149.202 1.59794 149.25 1.42491C149.367 1.37675 149.489 1.34423 149.614 1.32811L149.589 1.42103C149.567 1.48299 149.472 1.61851 149.516 1.63012C149.559 1.64174 149.61 1.57204 149.65 1.49847C149.69 1.43132 149.725 1.36148 149.756 1.28939H149.803C149.882 1.27326 149.963 1.26548 150.043 1.26615C150.039 1.27165 150.037 1.27848 150.037 1.28551C150.037 1.29255 150.039 1.29938 150.043 1.30487C150.056 1.30503 150.068 1.30195 150.08 1.29589C150.091 1.28982 150.101 1.28096 150.109 1.27003H150.283C148.93 2.11415 147.637 3.06275 146.414 4.10821C146.39 4.06499 146.371 4.01963 146.355 3.97269L146.399 3.92622Z" fill="black"/>
<path d="M144.605 15.488C144.663 15.5345 144.714 15.5771 144.758 15.6197L144.547 15.55L144.605 15.488Z" fill="black"/>
<path d="M144.415 15.3449L144.473 15.3875L144.389 15.4843L144.215 15.4262L144.273 15.3604L144.393 15.3333L144.415 15.3449Z" fill="black"/>
<path d="M144.139 15.1782L144.313 15.2789H144.277H144.255C144.239 15.2856 144.224 15.2961 144.211 15.3099L144.153 15.3718L144.008 15.3137C144.048 15.2789 144.095 15.2286 144.139 15.1782Z" fill="black"/>
<path d="M143.994 15.1009L143.848 15.2713L143.699 15.2055C143.754 15.1435 143.761 15.1358 143.797 15.1203L143.957 15.0854L143.994 15.1009Z" fill="black"/>
<path d="M143.644 14.9072C143.72 14.9459 143.797 14.9847 143.87 15.0273H143.793H143.764L143.724 15.0582L143.648 15.1395L143.48 15.0505C143.533 15.0001 143.588 14.9522 143.644 14.9072Z" fill="black"/>
<path d="M143.488 14.8219C143.433 14.8839 143.36 14.9536 143.324 14.9884L143.164 14.8877C143.188 14.8589 143.217 14.8341 143.248 14.8142L143.408 14.7832L143.488 14.8219Z" fill="black"/>
<path d="M143.073 14.6128L143.305 14.729H143.269H143.236C143.218 14.7373 143.2 14.7491 143.185 14.7638C143.162 14.7892 143.136 14.8125 143.109 14.8335L142.945 14.7173L143.073 14.6128Z" fill="black"/>
<path d="M142.829 14.4893L142.923 14.5357L142.792 14.648C142.752 14.6015 142.716 14.5822 142.68 14.5357L142.829 14.4893Z" fill="black"/>
<path d="M142.501 14.3267C142.544 14.35 142.587 14.3758 142.628 14.4041H142.653H142.675H142.708H142.661C142.644 14.4121 142.628 14.4225 142.613 14.4351C142.559 14.3839 142.506 14.3297 142.457 14.2725L142.501 14.3267Z" fill="black"/>
<path d="M141.497 14.5586C141.526 14.5511 141.554 14.5408 141.581 14.5276L141.944 14.4115C141.962 14.4115 141.988 14.4115 142.017 14.4115L142.104 14.3921C142.128 14.4376 142.155 14.4816 142.184 14.5237L142.235 14.5818C142.286 14.636 142.337 14.6902 142.388 14.7367L142.439 14.7793C142.192 14.9505 141.904 15.0432 141.61 15.0465C141.562 15.0465 141.504 15.0116 141.457 15.0465C141.41 15.0813 141.439 15.1045 141.482 15.1123C141.526 15.12 141.893 15.2904 142.595 14.9032L142.701 14.9806L142.77 15.031L142.897 15.1162L142.937 15.1433C142.693 15.3122 142.415 15.4183 142.126 15.453C142.071 15.453 141.999 15.453 141.955 15.484C141.911 15.515 141.955 15.5382 142.002 15.5421C142.395 15.5911 142.792 15.488 143.119 15.2517L143.239 15.3136L143.326 15.3601L143.453 15.422C143.234 15.583 142.987 15.6974 142.726 15.7589C142.668 15.7589 142.577 15.7589 142.544 15.817C142.512 15.8751 142.544 15.8596 142.617 15.8518C142.986 15.845 143.345 15.7268 143.653 15.5111L143.781 15.5653L143.879 15.604L143.977 15.6389C143.78 15.7896 143.562 15.9047 143.33 15.9796C143.272 16.0028 143.166 16.0067 143.144 16.0532C143.123 16.0996 143.173 16.0919 143.235 16.0803C143.574 16.0305 143.898 15.8979 144.181 15.6931C144.217 15.6931 144.254 15.7202 144.29 15.7279L144.399 15.7628L144.501 15.7938H144.563C144.374 15.948 144.162 16.0684 143.937 16.15C143.883 16.1771 143.77 16.1887 143.748 16.2352C143.726 16.2816 143.792 16.27 143.853 16.2545C144.183 16.1992 144.497 16.067 144.774 15.8673L144.857 15.8906H144.93C144.934 15.9344 144.934 15.9784 144.93 16.0222C144.932 16.0557 144.932 16.0893 144.93 16.1229C144.831 16.2003 144.727 16.2689 144.617 16.3281C144.563 16.3629 144.443 16.3939 144.439 16.4365C144.435 16.4791 144.501 16.4365 144.566 16.4365C144.632 16.4365 144.73 16.3784 144.875 16.3087C144.826 16.4157 144.762 16.5147 144.686 16.603C143.123 16.3204 141.646 15.6311 141.086 14.8103C141.211 14.7064 141.35 14.6217 141.497 14.5586Z" fill="black"/>
<path d="M140.732 15.2439H140.768C140.819 15.2206 140.87 15.2052 140.921 15.1858C140.931 15.2018 140.944 15.2161 140.958 15.2284C141.085 15.3729 141.226 15.5027 141.379 15.6156C141.349 15.6327 141.32 15.6521 141.292 15.6737L141.263 15.7046C141.261 15.7136 141.261 15.7228 141.263 15.7317C141.263 15.7511 141.263 15.7705 141.31 15.755C141.358 15.7395 141.452 15.7085 141.507 15.693C141.656 15.7946 141.81 15.8877 141.969 15.9718C141.937 15.9915 141.906 16.0135 141.878 16.0376C141.867 16.047 141.857 16.0573 141.849 16.0686C141.849 16.0686 141.849 16.088 141.849 16.0996C141.868 16.1052 141.888 16.1052 141.907 16.0996H141.943L141.998 16.0764L142.096 16.0415C142.244 16.1164 142.4 16.1861 142.565 16.2506C142.534 16.2763 142.505 16.3062 142.481 16.3396C142.481 16.3396 142.481 16.3784 142.55 16.3629C142.602 16.3433 142.652 16.3187 142.7 16.2893C142.849 16.3435 143.009 16.3977 143.172 16.4481C143.145 16.478 143.122 16.5119 143.103 16.5487C143.103 16.5487 143.103 16.5487 143.103 16.572C143.103 16.5952 143.132 16.6068 143.18 16.572C143.226 16.5477 143.27 16.5178 143.311 16.4829L143.729 16.5952C143.709 16.6257 143.692 16.6581 143.678 16.692C143.676 16.6968 143.675 16.702 143.676 16.7071C143.676 16.7122 143.678 16.7172 143.68 16.7216C143.683 16.7261 143.686 16.7299 143.69 16.7328C143.694 16.7357 143.699 16.7376 143.703 16.7385C143.722 16.7462 143.743 16.7462 143.761 16.7385H143.78C143.821 16.7154 143.858 16.6867 143.892 16.6533L144.405 16.7656C144.389 16.7921 144.377 16.8207 144.369 16.8508C144.367 16.8597 144.367 16.8689 144.369 16.8779L144.22 16.9785L144.063 17.0637H144.031H143.947C143.978 17.0365 144.003 17.002 144.02 16.963C144.021 16.9594 144.022 16.9554 144.022 16.9514C144.022 16.9474 144.021 16.9434 144.02 16.9398C144.02 16.9204 143.972 16.9166 143.936 16.9398C143.877 16.9623 143.822 16.995 143.772 17.0366L143.38 16.9437C143.41 16.917 143.435 16.8841 143.452 16.8469C143.456 16.8417 143.457 16.8357 143.457 16.8295C143.457 16.8232 143.456 16.8172 143.452 16.812C143.435 16.8065 143.416 16.8065 143.398 16.812C143.338 16.8347 143.28 16.8645 143.227 16.9011C143.074 16.8585 142.925 16.8198 142.783 16.7733C142.814 16.7439 142.838 16.7084 142.856 16.6688C142.856 16.6688 142.856 16.6417 142.856 16.6378C142.856 16.6339 142.827 16.6378 142.805 16.6378C142.747 16.6636 142.692 16.6933 142.638 16.7268C142.463 16.6726 142.296 16.6107 142.136 16.5487C142.136 16.5178 142.183 16.4829 142.198 16.4481C142.198 16.4171 142.172 16.4132 142.132 16.421C142.081 16.4423 142.034 16.4738 141.994 16.5139C141.823 16.4456 141.656 16.3681 141.492 16.2816C141.492 16.2583 141.492 16.2274 141.518 16.2003C141.526 16.1825 141.535 16.1656 141.547 16.1499C141.547 16.1499 141.521 16.1189 141.488 16.1267H141.463C141.447 16.1332 141.433 16.1424 141.419 16.1538L141.336 16.2351C141.147 16.1313 140.967 16.0109 140.798 15.875C140.819 15.8285 140.859 15.7666 140.881 15.7201C140.882 15.7085 140.882 15.6969 140.881 15.6853C140.881 15.662 140.881 15.6504 140.852 15.6504H140.819H140.801L140.761 15.6775L140.674 15.755C140.62 15.6779 140.592 15.5839 140.594 15.4878C140.634 15.3949 140.681 15.3213 140.732 15.2439Z" fill="black"/>
<path d="M140.414 15.8752C141.068 16.5374 142.232 16.9826 143.734 17.2653C143.662 17.3037 143.587 17.3323 143.508 17.3505L143.388 17.3815C143.368 17.3416 143.341 17.3061 143.308 17.2769C143.297 17.2622 143.281 17.252 143.263 17.2478C143.245 17.2436 143.227 17.2457 143.21 17.2537C143.163 17.2808 143.21 17.3505 143.21 17.3776C143.212 17.3904 143.212 17.4035 143.21 17.4163C143.066 17.442 142.92 17.4562 142.774 17.4589C142.79 17.3911 142.79 17.32 142.773 17.2523C142.757 17.1846 142.725 17.1225 142.679 17.0717C142.664 17.0555 142.645 17.0449 142.624 17.0414C142.603 17.0379 142.582 17.0417 142.563 17.0523C142.508 17.0833 142.563 17.1491 142.588 17.1801C142.61 17.269 142.61 17.3623 142.588 17.4512C142.429 17.4399 142.271 17.4153 142.116 17.3776C142.146 17.2918 142.154 17.1986 142.138 17.1083C142.122 17.0181 142.083 16.9343 142.025 16.8665C142.006 16.8533 141.984 16.8463 141.961 16.8463C141.938 16.8463 141.916 16.8533 141.897 16.8665C141.836 16.9052 141.919 16.9478 141.93 16.9826C141.972 17.0985 141.972 17.2269 141.93 17.3427H141.908C141.748 17.2916 141.59 17.2308 141.436 17.1608C141.48 17.0778 141.498 16.982 141.487 16.8873C141.477 16.7927 141.438 16.704 141.377 16.6342C141.362 16.6146 141.342 16.6012 141.318 16.5962C141.295 16.5913 141.271 16.5951 141.25 16.6071C141.188 16.6458 141.268 16.6922 141.276 16.7271C141.294 16.8408 141.282 16.9578 141.239 17.064C141.08 16.981 140.928 16.8838 140.785 16.7736C140.842 16.6979 140.87 16.6022 140.864 16.5054C140.858 16.4086 140.818 16.3178 140.752 16.2508C140.737 16.2328 140.716 16.2207 140.694 16.2165C140.671 16.2123 140.648 16.2162 140.628 16.2276C140.566 16.2624 140.628 16.3089 140.65 16.3438C140.663 16.4448 140.651 16.5478 140.614 16.6419C140.515 16.5683 140.425 16.4948 140.341 16.4251C140.334 16.2387 140.359 16.0525 140.414 15.8752Z" fill="black"/>
<path d="M152.682 10.1487C152.657 10.11 152.617 10.0867 152.581 10.1177C152.544 10.1487 152.562 10.1681 152.581 10.199C152.468 10.2494 152.348 10.2997 152.217 10.3462C152.185 10.2554 152.129 10.1762 152.057 10.1177C152.04 10.1019 152.018 10.0932 151.995 10.0932C151.972 10.0932 151.95 10.1019 151.933 10.1177C151.886 10.1564 151.973 10.199 151.988 10.2377C152.014 10.2946 152.03 10.3564 152.035 10.4197L151.653 10.5243C151.649 10.4359 151.623 10.3502 151.579 10.2755C151.534 10.2009 151.472 10.1398 151.399 10.0984C151.378 10.0834 151.353 10.0754 151.328 10.0754C151.302 10.0754 151.278 10.0834 151.257 10.0984C151.206 10.1448 151.311 10.1797 151.333 10.2145C151.401 10.3298 151.432 10.4659 151.42 10.6017C151.239 10.6404 151.057 10.6714 150.864 10.6985C150.876 10.5839 150.852 10.4682 150.796 10.3699C150.739 10.2716 150.653 10.1964 150.551 10.1564C150.527 10.1386 150.497 10.1291 150.468 10.1291C150.438 10.1291 150.409 10.1386 150.384 10.1564C150.329 10.2068 150.453 10.2416 150.482 10.2803C150.562 10.4168 150.598 10.5772 150.584 10.7372C150.286 10.776 150.02 10.7992 149.802 10.8108C149.796 10.675 149.746 10.5457 149.66 10.4448C149.575 10.3438 149.459 10.2775 149.333 10.2571C149.301 10.2429 149.266 10.2376 149.232 10.2417C149.198 10.2457 149.165 10.259 149.137 10.2803C149.078 10.3384 149.227 10.3539 149.267 10.3888C149.328 10.4409 149.378 10.5061 149.414 10.5801C149.45 10.6542 149.471 10.7354 149.475 10.8186H149.042C148.939 10.7842 148.842 10.7319 148.755 10.6637C148.596 10.5491 148.486 10.3723 148.449 10.1719C149.937 9.97061 151.441 9.9304 152.937 10.0519C152.852 10.0622 152.767 10.0945 152.682 10.1487Z" fill="black"/>
<path d="M153.416 9.5291C153.362 9.58036 153.311 9.63464 153.263 9.69173C153.147 9.69173 153.031 9.66462 152.9 9.65688C152.931 9.60595 152.956 9.55138 152.976 9.49425C152.976 9.47102 152.976 9.45553 152.976 9.44392C152.952 9.44472 152.929 9.45429 152.911 9.47102C152.856 9.52481 152.803 9.58168 152.754 9.64139L152.285 9.61428C152.299 9.5597 152.317 9.50656 152.34 9.45553C152.34 9.43617 152.34 9.42068 152.34 9.41681C152.327 9.41459 152.314 9.41516 152.301 9.41849C152.289 9.42182 152.277 9.42784 152.267 9.43617C152.247 9.45354 152.229 9.473 152.212 9.49425C152.181 9.53242 152.153 9.57394 152.129 9.61816H151.543C151.533 9.56581 151.533 9.51175 151.543 9.4594V9.4323C151.543 9.4323 151.543 9.39745 151.543 9.39358C151.529 9.39202 151.514 9.39363 151.5 9.39829C151.487 9.40295 151.474 9.41057 151.463 9.42068C151.451 9.42898 151.44 9.43945 151.43 9.45166L151.412 9.47876C151.384 9.52266 151.36 9.56933 151.339 9.61816C151.056 9.61816 150.769 9.61816 150.467 9.653C150.474 9.58612 150.474 9.51854 150.467 9.45166C150.467 9.45166 150.467 9.4323 150.445 9.42843C150.433 9.42683 150.422 9.42772 150.41 9.43105C150.399 9.43437 150.389 9.44007 150.379 9.44779C150.362 9.45912 150.346 9.47351 150.332 9.49038C150.324 9.49812 150.318 9.50731 150.314 9.51748C150.287 9.56254 150.263 9.60907 150.241 9.65688C149.797 9.68785 149.332 9.73432 148.848 9.7924V9.6956C148.848 9.65688 148.848 9.61816 148.812 9.60267C148.788 9.60068 148.763 9.6075 148.743 9.62203C148.725 9.63536 148.709 9.65097 148.696 9.66849L148.677 9.69947C148.655 9.73974 148.636 9.7826 148.623 9.82725L148.488 9.84661C148.519 9.65477 148.58 9.47002 148.67 9.30065C149.107 9.23483 149.532 9.18062 149.943 9.1419C149.915 9.17483 149.89 9.20976 149.867 9.24644C149.866 9.25676 149.866 9.2671 149.867 9.27742C149.863 9.29396 149.863 9.31121 149.867 9.32776C149.87 9.32948 149.874 9.33037 149.878 9.33037C149.881 9.33037 149.885 9.32948 149.888 9.32776C149.907 9.33336 149.928 9.33336 149.947 9.32776C149.968 9.31679 149.988 9.30243 150.005 9.28516L150.194 9.11867C150.532 9.09156 150.859 9.06833 151.179 9.05671L151.107 9.15351C151.099 9.16559 151.093 9.17859 151.089 9.19223C151.085 9.20485 151.085 9.21834 151.089 9.23095C151.091 9.23558 151.094 9.23967 151.098 9.243C151.101 9.24632 151.106 9.24881 151.11 9.25031C151.137 9.25137 151.163 9.24169 151.183 9.22321C151.256 9.17287 151.339 9.09156 151.405 9.03735C151.63 9.03735 151.852 9.03735 152.07 9.03735C152.039 9.07415 152.01 9.11294 151.983 9.15351C151.982 9.16898 151.982 9.18452 151.983 9.19998C151.982 9.20894 151.982 9.21813 151.983 9.22708C151.982 9.23424 151.983 9.24166 151.986 9.24803C151.99 9.25441 151.995 9.25933 152.001 9.26193C152.016 9.26121 152.03 9.25742 152.043 9.25077C152.056 9.24412 152.068 9.23475 152.078 9.22321H152.096C152.147 9.17287 152.205 9.12254 152.26 9.07607L152.783 9.09543C152.751 9.13768 152.724 9.1846 152.703 9.23483C152.702 9.24637 152.702 9.25813 152.703 9.26967C152.703 9.27671 152.705 9.28361 152.709 9.28924C152.713 9.29487 152.719 9.2989 152.725 9.30065C152.725 9.30065 152.776 9.30065 152.801 9.2658C152.855 9.21596 152.906 9.16296 152.954 9.10705L153.383 9.14577C153.347 9.2011 153.32 9.26266 153.303 9.32776C153.303 9.32776 153.303 9.35486 153.321 9.35873C153.336 9.36095 153.35 9.35927 153.363 9.35385C153.377 9.34843 153.389 9.33944 153.398 9.32776C153.423 9.30386 153.446 9.27797 153.467 9.25031L153.532 9.16126L153.674 9.18062C153.608 9.31171 153.52 9.4296 153.416 9.5291Z" fill="black"/>
<path d="M148.809 8.98344C148.974 8.77546 149.148 8.57645 149.332 8.38714C149.416 8.32759 149.496 8.26295 149.572 8.19354C149.834 8.16257 150.092 8.14321 150.343 8.13159C150.142 8.29368 149.927 8.43378 149.7 8.54977C149.623 8.58849 149.456 8.62721 149.445 8.67755C149.434 8.72788 149.518 8.70078 149.605 8.67755C149.98 8.56292 150.332 8.37804 150.645 8.13159H150.951C151.143 8.13159 151.336 8.13159 151.529 8.13159C151.365 8.25071 151.192 8.35559 151.012 8.44522C150.943 8.4762 150.798 8.50718 150.787 8.55364C150.776 8.60011 150.852 8.58075 150.932 8.55364C151.227 8.46422 151.507 8.3257 151.762 8.14321C151.885 8.14321 152.013 8.16257 152.125 8.17806L152.311 8.20129C152.194 8.27875 152.073 8.34733 151.947 8.4065C151.882 8.43748 151.743 8.46458 151.736 8.51105C151.729 8.55751 151.798 8.53815 151.871 8.51105C152.089 8.44626 152.298 8.35123 152.493 8.22839C152.656 8.2555 152.798 8.29034 152.929 8.32519L152.798 8.40263C152.736 8.43361 152.602 8.46458 152.598 8.51105C152.594 8.55751 152.664 8.53428 152.733 8.51105C152.844 8.46945 152.953 8.42163 153.06 8.36778L153.231 8.43748L153.344 8.49556C153.296 8.51879 153.256 8.54203 153.253 8.56526C153.249 8.58849 153.322 8.58462 153.395 8.56526H153.42C153.466 8.59113 153.507 8.62736 153.539 8.67146C153.571 8.71557 153.594 8.76651 153.605 8.82081C152.006 8.6739 150.396 8.72849 148.809 8.98344Z" fill="black"/>
<path d="M140.891 0.542236C140.946 0.550638 141 0.566245 141.051 0.5887C141.141 0.62176 141.216 0.691298 141.258 0.782301C141.178 0.87996 141.103 0.982066 141.033 1.08819C140.982 1.17337 140.957 1.25081 141.033 1.24307C141.109 1.23533 141.182 1.08045 141.248 1.01075L141.338 0.913949C141.388 1.01245 141.419 1.12032 141.429 1.23145C141.209 1.4273 141.015 1.65393 140.851 1.90518C140.8 1.9865 140.771 2.06394 140.851 2.05619C140.931 2.04845 141 1.89357 141.066 1.82774C141.181 1.70084 141.302 1.58064 141.429 1.46765C141.413 1.6377 141.384 1.80605 141.342 1.97101C140.997 2.20988 140.697 2.51596 140.458 2.87319C140.407 2.9545 140.378 3.02807 140.44 3.02419C140.502 3.02032 140.593 2.86931 140.658 2.79962C140.845 2.60437 141.047 2.42687 141.262 2.26915L141.24 2.3311C141.205 2.43518 141.165 2.53728 141.12 2.63699C141.066 2.75315 140.997 2.88093 140.92 3.02419C140.745 3.15134 140.58 3.29519 140.429 3.45399C140.349 3.4114 140.262 3.3688 140.16 3.32621C140.594 2.46692 140.843 1.51624 140.891 0.542236Z" fill="black"/>
<path d="M139.809 2.2536H139.638C139.696 2.06775 139.744 1.8664 139.784 1.70378C139.864 1.67281 139.939 1.62836 140.005 1.57213C140.016 1.56282 140.026 1.55245 140.035 1.54115C140.035 1.51792 140.035 1.48694 140.002 1.48694H139.958C139.905 1.49701 139.853 1.51125 139.802 1.52954C139.827 1.39014 139.845 1.24688 139.86 1.11136C139.919 1.08007 139.976 1.04516 140.031 1.00682C140.053 0.993047 140.071 0.974573 140.085 0.952607C140.085 0.952607 140.085 0.952607 140.085 0.929375C140.085 0.906143 140.067 0.894527 140.042 0.894527H140.02C139.967 0.907204 139.915 0.924028 139.864 0.944863C139.864 0.836447 139.864 0.731903 139.864 0.627358C139.929 0.604126 139.991 0.577022 140.056 0.557662C140.125 0.539738 140.194 0.525523 140.264 0.51507C140.342 0.504742 140.422 0.504742 140.5 0.51507C140.5 0.627358 140.5 0.747391 140.5 0.867423C140.434 0.895336 140.371 0.930365 140.311 0.971967C140.293 0.985641 140.276 1.0012 140.26 1.01843C140.26 1.04554 140.26 1.05715 140.289 1.05715C140.319 1.06264 140.35 1.06264 140.38 1.05715L140.486 1.03779C140.467 1.1888 140.446 1.34368 140.413 1.49856C140.343 1.5285 140.276 1.56478 140.213 1.60698C140.192 1.61857 140.174 1.63596 140.162 1.65731C140.162 1.68055 140.162 1.69216 140.191 1.69603C140.219 1.69946 140.247 1.69946 140.275 1.69603H140.38C140.333 1.89738 140.278 2.08323 140.213 2.30394C140.143 2.35161 140.072 2.39555 139.998 2.43559C139.981 2.44798 139.965 2.46225 139.951 2.47818C139.951 2.50141 139.951 2.52077 139.951 2.53239C139.969 2.53809 139.988 2.53809 140.005 2.53239C140.059 2.52152 140.112 2.50465 140.162 2.48205C140.089 2.69194 140.005 2.89746 139.911 3.0977C139.911 3.13642 139.882 3.16353 139.867 3.1945C139.743 3.15182 139.615 3.11946 139.485 3.0977L139.54 3.06673L139.595 3.02026C139.595 2.99703 139.595 2.98154 139.565 2.97767H139.525C139.481 2.97377 139.437 2.96335 139.395 2.94669C139.472 2.78515 139.538 2.61828 139.595 2.4472C139.656 2.43154 139.714 2.40677 139.769 2.37364C139.785 2.36655 139.8 2.35601 139.813 2.34266C139.828 2.33174 139.841 2.31871 139.853 2.30394C139.845 2.28071 139.853 2.2536 139.809 2.2536Z" fill="black"/>
<path d="M138.024 2.89613L138.046 2.82643C138.286 2.79115 138.531 2.82873 138.751 2.93485C138.781 2.95808 138.773 3.04327 138.85 3.01616C138.86 3.0135 138.87 3.00851 138.879 3.00151C138.888 2.99451 138.895 2.98564 138.901 2.97547C138.906 2.96529 138.91 2.95402 138.911 2.94237C138.912 2.93072 138.911 2.91893 138.908 2.90775C138.908 2.82643 138.802 2.56314 138.14 2.58637C138.191 2.46246 138.246 2.33082 138.304 2.19917C138.532 2.14923 138.769 2.16121 138.991 2.23402C139.031 2.23402 139.05 2.32694 139.126 2.28822C139.202 2.2495 139.181 2.21466 139.155 2.18368C139.13 2.1527 138.959 1.932 138.406 1.97459C138.435 1.92038 138.461 1.8623 138.486 1.81197C138.525 1.73311 138.569 1.65683 138.617 1.58352C138.781 1.55539 138.948 1.55539 139.111 1.58352C139.166 1.58352 139.221 1.63385 139.282 1.58352C139.344 1.53318 139.308 1.52157 139.282 1.50221C139.127 1.41446 138.952 1.37678 138.777 1.39379L138.806 1.35894C138.955 1.1928 139.125 1.04947 139.311 0.933021C139.377 0.886902 139.447 0.84675 139.519 0.812988C139.481 1.58405 139.307 2.34059 139.006 3.04327C138.752 3.02198 138.496 3.02198 138.242 3.04327L137.98 3.07811C137.992 3.01662 138.006 2.95586 138.024 2.89613Z" fill="black"/>
<path d="M132.772 14.7564C132.83 14.7293 132.892 14.7061 132.958 14.6829C132.942 14.7087 132.925 14.7333 132.907 14.7564C132.795 14.8821 132.673 14.9974 132.543 15.101C132.61 14.9796 132.687 14.8644 132.772 14.7564Z" fill="black"/>
<path d="M133.147 16.0649H133.176H133.263C133.236 16.1926 133.215 16.3219 133.201 16.4521C133.165 16.4639 133.129 16.4795 133.096 16.4985L133.067 16.5179V16.5411C133.067 16.5411 133.067 16.5799 133.096 16.5799H133.208C133.203 16.6843 133.203 16.789 133.208 16.8935C133.159 16.9146 133.113 16.9419 133.07 16.9748V16.9942C133.07 16.9942 133.07 17.0368 133.107 17.0329C133.144 17.028 133.18 17.0189 133.216 17.0058C133.224 17.0852 133.236 17.164 133.252 17.242L133.154 17.3039C133.14 17.3097 133.128 17.3207 133.121 17.3349C133.12 17.3426 133.12 17.3505 133.121 17.3581C133.121 17.3581 133.147 17.3814 133.168 17.3581C133.207 17.3537 133.245 17.3446 133.281 17.331C133.281 17.331 133.281 17.3659 133.281 17.3852C133.144 17.4256 133.002 17.4464 132.859 17.4472C132.859 17.424 132.859 17.3969 132.859 17.3736C132.899 17.3576 132.937 17.3368 132.972 17.3117C132.984 17.3058 132.994 17.2964 133.001 17.2846C133.001 17.2846 133.001 17.2575 132.983 17.2575H132.932H132.837C132.837 17.1761 132.812 17.0871 132.805 17.0019C132.848 16.9839 132.889 16.9619 132.928 16.9361C132.928 16.9361 132.954 16.9167 132.957 16.9051C132.961 16.8935 132.957 16.878 132.957 16.878H132.91H132.819C132.81 16.7633 132.81 16.6481 132.819 16.5334C132.837 16.514 132.899 16.4869 132.943 16.456C132.95 16.4535 132.956 16.4494 132.961 16.444C132.966 16.4386 132.97 16.4321 132.972 16.425C132.972 16.4056 132.972 16.394 132.954 16.3863H132.921L132.819 16.4172C132.837 16.2723 132.864 16.1288 132.899 15.9874C132.945 15.9442 132.995 15.9065 133.048 15.8752H133.07C133.085 15.8679 133.096 15.8556 133.103 15.8403C133.106 15.8382 133.108 15.8353 133.11 15.8319C133.112 15.8286 133.113 15.8248 133.113 15.8209C133.113 15.8171 133.112 15.8133 133.11 15.81C133.108 15.8066 133.106 15.8037 133.103 15.8016H133.074C133.074 15.8016 133.03 15.8016 133.027 15.8016L132.939 15.8364C133.005 15.6181 133.084 15.4047 133.176 15.1975C133.237 15.1472 133.31 15.1356 133.376 15.0775C133.388 15.0704 133.398 15.0596 133.405 15.0465C133.407 15.0426 133.409 15.0379 133.409 15.033C133.409 15.0281 133.407 15.0234 133.405 15.0194C133.379 15.0159 133.354 15.0159 133.328 15.0194L133.234 15.0504L133.325 14.88C133.361 14.8065 133.401 14.729 133.445 14.6516C133.584 14.6055 133.727 14.5681 133.87 14.5393C133.816 14.64 133.757 14.7407 133.71 14.8452C133.663 14.9497 133.576 15.1317 133.521 15.2672L133.441 15.2866C133.429 15.2836 133.417 15.2836 133.405 15.2866L133.365 15.3137C133.355 15.322 133.348 15.3326 133.343 15.3447C133.343 15.3447 133.343 15.3679 133.343 15.3757C133.376 15.3916 133.412 15.402 133.448 15.4066C133.388 15.5684 133.337 15.7339 133.296 15.9023L133.208 15.9255L133.168 15.9448H133.139C133.128 15.9524 133.119 15.9631 133.114 15.9758C133.114 15.9758 133.114 16.0649 133.147 16.0649Z" fill="black"/>
<path d="M134.62 14.9538C134.3 15.008 134.188 14.8221 134.166 14.7485C134.144 14.675 134.166 14.6595 134.122 14.6711C134.107 14.6769 134.095 14.6875 134.086 14.7015C134.078 14.7154 134.074 14.7319 134.075 14.7485C134.075 14.8221 134.02 15.1551 134.533 15.1706C134.508 15.2325 134.486 15.2867 134.471 15.3332L134.435 15.43L134.391 15.5578C134.391 15.5578 134.391 15.5888 134.391 15.6043C134.064 15.6933 133.933 15.5229 133.9 15.4571C133.868 15.3913 133.9 15.3797 133.857 15.3952C133.844 15.3996 133.834 15.4087 133.827 15.4208C133.82 15.4329 133.818 15.4472 133.82 15.461C133.82 15.5229 133.802 15.8172 134.293 15.8017H134.311C134.3 15.8295 134.288 15.8566 134.275 15.883C134.243 15.976 134.211 16.065 134.177 16.1502C134.101 16.1706 134.022 16.1707 133.946 16.1504C133.871 16.1302 133.801 16.0902 133.744 16.034C133.722 16.034 133.722 15.9682 133.678 15.9837C133.673 15.9862 133.667 15.9899 133.663 15.9947C133.659 15.9995 133.656 16.0051 133.654 16.0114C133.651 16.0176 133.651 16.0242 133.651 16.0308C133.652 16.0374 133.654 16.0438 133.657 16.0495C133.657 16.0999 133.722 16.3244 134.118 16.3206L134.024 16.5761C133.905 16.5904 133.785 16.5632 133.682 16.4987C133.657 16.4987 133.642 16.4445 133.606 16.46C133.601 16.4631 133.598 16.4675 133.595 16.4725C133.592 16.4776 133.591 16.4833 133.591 16.489C133.591 16.4948 133.592 16.5004 133.595 16.5055C133.598 16.5106 133.601 16.5149 133.606 16.518C133.645 16.5817 133.699 16.6331 133.763 16.6672C133.827 16.7012 133.898 16.7165 133.969 16.7116C133.939 16.7884 133.902 16.8622 133.86 16.9324C133.806 16.9292 133.754 16.9161 133.704 16.8936C133.675 16.8936 133.657 16.851 133.62 16.8704C133.584 16.8898 133.598 16.9053 133.62 16.9207C133.661 16.9721 133.714 17.012 133.773 17.0369C133.702 17.1353 133.616 17.2204 133.518 17.2886C133.329 16.58 133.518 15.7398 133.955 14.8221L134.1 14.5433C134.109 14.5284 134.119 14.5142 134.129 14.5007C134.327 14.5465 134.512 14.6391 134.671 14.7718C134.657 14.8415 134.639 14.8995 134.62 14.9538Z" fill="black"/>
</svg>
