<svg width="40" height="40" viewBox="0 0 40 40" xmlns="http://www.w3.org/2000/svg">
<path d="M22.7161 2.71582C13.1883 2.71582 5.4403 10.472 5.4403 19.9997V20.0569L2.01944 14.9052C1.6847 14.399 0.998893 14.2602 0.492703 14.5949C-0.0134861 14.9297 -0.15228 15.6155 0.182458 16.1217L5.14638 23.5921C5.326 23.8615 5.61175 24.0329 5.93016 24.0738C5.97915 24.0819 6.01997 24.0819 6.06895 24.0819C6.33838 24.0819 6.59964 23.9839 6.80374 23.7962L13.7026 17.5831C14.1517 17.1749 14.1925 16.4809 13.7843 16.0237C13.376 15.5747 12.6821 15.5338 12.2249 15.9421L7.64467 20.0814V19.9997C7.64467 11.6803 14.4048 4.92019 22.7161 4.92019C31.0274 4.92019 37.7956 11.6803 37.7956 19.9997C37.7956 28.3192 31.0355 35.0793 22.7242 35.0793C18.6992 35.0793 14.9109 33.5117 12.0697 30.6624C11.637 30.2297 10.9431 30.2297 10.5104 30.6624C10.0776 31.0951 10.0776 31.7891 10.5104 32.2218C13.7761 35.4875 18.1114 37.2837 22.7242 37.2837C32.2439 37.2837 40 29.5357 40 19.9997C40 10.4638 32.2439 2.71582 22.7161 2.71582Z" fill="currentColor"/>
</svg>
