<svg xmlns="http://www.w3.org/2000/svg" xmlns:xlink="http://www.w3.org/1999/xlink"><defs><symbol id="btnArrow-usage" viewBox="0 0 9 14"><path d="M.306 11.973L5.268 7 .306 2.027 1.833.5l6.5 6.5-6.5 6.5-1.527-1.527z" fill="#fff"/></symbol><symbol id="cordiant-usage" viewBox="0 0 155 18"><path d="M120.885 3.524l1.134-2.59h-7.411l-.917 2.06a.865.865 0 01-.363.433c-.177.094-.374.14-.571.132h-.058l-.939 2.13h.728l-1.091 2.528c-.033.096-.066.193-.102.29v.043l-2.328 5.34a2.77 2.77 0 00-.203.994c-.005.297.064.59.2.848.123.262.304.488.527.659a3.77 3.77 0 002.462.824h3c.306-.035.895-.073 1.757-.182h.047l1.091-2.56h-.138a2.664 2.664 0 01-1.029-.146.56.56 0 01-.233-.167.369.369 0 01-.069-.228.76.76 0 01.062-.279l3.513-7.965h1.749l.975-2.164h-1.793zm-108.578 6.69l-.026.055-1.367 3.187a.26.26 0 01-.106.131 1.421 1.421 0 01-.29.151 2.469 2.469 0 01-.848.167 1.042 1.042 0 01-.753-.213c-.043-.035-.058-.062-.058-.09a.1.1 0 01.022-.061l3.833-9.146a.8.8 0 01.44-.333c.26-.1.535-.144.811-.132.274-.02.547.044.79.182.02.023.037.048.054.074a.063.063 0 010 .035l-.018.042-.986 2.397h9.317l.608-1.402 1-2.38-.058-.047c-.324-.283-.651-.527-.975-.775A11.68 11.68 0 0021.238.871a19.756 19.756 0 00-6.022-.828h-.727a17.715 17.715 0 00-6.5 1.072C6.125 1.812 4.969 2.711 4.5 3.8L.175 13.97a2.32 2.32 0 00-.175.848c.006.382.134.75.364 1.042.283.36.635.652 1.033.856 1.225.743 3.123 1.084 5.596 1.084h.75a35.715 35.715 0 005.655-.519 45.737 45.737 0 005.76-1.316h.04l.608-1.448a5.18 5.18 0 01.13-.388l.477-1.068 1.196-2.846h-9.302zm26.82-1.118l.106-.229.553-1.266a1.23 1.23 0 00.062-.387c0-.213-.064-.42-.182-.593a1.96 1.96 0 00-.524-.522c-.192-.143-.4-.26-.618-.349-1.091-.503-2.575-.774-4.433-.774h-1.637c-.64 0-1.21.042-1.818.077-1.12.105-2.225.336-3.299.69a8.474 8.474 0 00-1.818.863c-.405.238-.734.6-.946 1.038l-2.182 4.878-.53 1.2-.597 1.38a1.047 1.047 0 00-.026.235c.006.282.11.551.291.755.239.266.524.48.84.628a.374.374 0 00.117.046l.087.031c1.091.538 2.579.774 4.397.774h1.673c.607.013 1.214-.011 1.818-.073a15.24 15.24 0 003.302-.67c1.455-.511 2.368-1.088 2.757-1.797l1.935-4.43.673-1.505zm-6.39-1.162l-2.301 5.208-.586 1.394a.418.418 0 01-.25.178c-.195.055-.396.08-.597.073a2.02 2.02 0 01-.531-.073.529.529 0 01-.076-.07.095.095 0 010-.027l2.276-5.185.618-1.401c.022-.054.099-.12.248-.17.207-.058.422-.084.636-.078a1.67 1.67 0 01.466.054.47.47 0 01.094.05v.024a.052.052 0 01-.014.035l.018-.012zm60.636-.81a1.501 1.501 0 00-.208-.674 1.387 1.387 0 00-.487-.487 2.097 2.097 0 01-.334-.201c-.913-.515-2.295-.775-4.11-.775h-.552a21.075 21.075 0 00-4 .388 19.86 19.86 0 00-3.205.921c-.498.188-.984.412-1.455.67h-.029L77.986 9.22h6.862l.459-1.088a.244.244 0 01.102-.109c.076-.047.156-.088.24-.12a1.36 1.36 0 01.596-.077 1.87 1.87 0 01.28 0c.062.007.12.037.164.085h.022a.14.14 0 01.058.039v.034a.205.205 0 010 .055l-.55 1.289-2.632.635-3.935.921a9.194 9.194 0 00-2.386.965 5.92 5.92 0 00-1.407 1.103 4.113 4.113 0 00-.655.895c-.152.335-.235.7-.244 1.072.007.311.087.616.231.886.145.27.35.498.598.663v.039l.037.03c.876.647 2.262.984 4.193.984a11.51 11.51 0 001.706-.217c.3-.05.598-.12.89-.213a2.71 2.71 0 00.302-.12l-.08.213h6.266l4.154-9.498c.076-.176.116-.367.116-.561zm-9.128 6.816a.439.439 0 01-.153.108c-.147.067-.299.12-.454.159l-.19.046h-.076a1.953 1.953 0 01-1.091-.197.318.318 0 01-.116-.115.345.345 0 01-.048-.16.44.44 0 01.048-.186c.141-.294.52-.58 1.174-.775l.23-.08c.418-.078.868-.183 1.32-.291l-.644 1.49zm-4.422-13h-6.808l-.124.287-.244.55-1.142 2.62h6.837L79.822.94zM69.64 3.791l.105-.248L70.891.941h-6.746l-1.971 4.503a16.906 16.906 0 00-3.215-.333h-.571a8.08 8.08 0 00-3.39.748c-1.09.484-1.76 1.103-2.113 1.827l-3.12 7.129c-.097.201-.15.424-.153.65.01.228.074.45.186.645.113.194.27.355.458.466.153.13.322.236.502.318a5.973 5.973 0 002.4.387c.858 0 1.637-.043 2.328-.089.698-.085 1.229-.17 1.636-.217a.71.71 0 01.386.198h6.269l.364-.837 5.048-11.558.45-.987zm-8.692 4.426L58.3 14.203a.75.75 0 01-.341.348 1.5 1.5 0 01-.651.12 1.169 1.169 0 01-.462-.07.227.227 0 01-.088-.07.12.12 0 01-.025-.08.405.405 0 01.047-.163l2.659-6.122a1 1 0 01.41-.352c.185-.078.38-.12.579-.124.095-.004.19.01.28.039a.33.33 0 01.17.135.244.244 0 01.08.19.632.632 0 01-.003.163h-.007zm9.82-2.165l-.023.054-4.848 11.098h6.849L77.61 6.052h-6.844zm39.145 1.588c.038-.135.058-.274.058-.415a1.15 1.15 0 00-.218-.681 1.043 1.043 0 00-.389-.418c-.593-.488-1.528-.705-2.866-.705-.986 0-1.971.065-2.949.194l-2.008.232c-.491.05-.804.077-.924.077a.885.885 0 01-.218-.023.253.253 0 01-.12-.062.183.183 0 01-.084-.128.062.062 0 010-.027l.066-.135h-4.31l-5.127 11.655h6.764l3.855-8.77a.714.714 0 01.364-.364c.202-.095.422-.14.643-.132a.873.873 0 01.404.073c.033.017.06.042.08.074a.162.162 0 01.022.09.456.456 0 01-.044.181l-3.902 8.848h6.761l1.72-3.95.032-.097V13.1l2.372-5.42.018-.04zM51.267 9.034l1.64-3.748h-.138a8.707 8.707 0 00-1.07.042c-.61.047-1.09.09-1.563.174-.39.107-.773.236-1.15.388l-.112-.36h-6.48l-1.132 2.602a3.355 3.355 0 01-.12.329l-.513 1.115-.727 1.641-1.924 4.43c0 .035-.043.074-.069.12l-.622 1.425h6.845l2.934-6.699c.14-.27.33-.505.558-.693a2.03 2.03 0 01.774-.395 8.475 8.475 0 012.814-.387l.055.016zm79.496 6.625l-5.658.604c-2.852.31-5.743.627-6.812.774l12.15.565a3.733 3.733 0 01-.04-.495c.006-.507.13-1.005.36-1.448zm4.009-6.087a.832.832 0 01.029-.387c.155-.433.373-.838.644-1.2V7.96a.203.203 0 000-.035c-.796.07-3.375.29-5.982.523-2.51.22-5.059.453-6.037.565l11.255.74.062-.12v-.062h.029zm2.276-8.461c.077-.092.161-.177.25-.255-1.24.066-8.055.445-8.2.503l7.528.457c0-.039.036-.081.054-.116.096-.214.22-.412.368-.589zm16.402 6.861a4.487 4.487 0 00-1.258-.306c-.124 0-.728-.054-.728-.058h-.763c-.576.003-1.15.054-1.717.155a7.27 7.27 0 00-.796.194c-.277.089-.39.097-.608.162-.325.12-.637.277-.931.469l-.298.182c-.156.081-.309.124-.404.166a.923.923 0 00-.502.252l-.04.035-.341.33.498-.605a1.007 1.007 0 00-.473.198c-.214.17-.578.507-.578.507a1.133 1.133 0 01.193-.345 5.03 5.03 0 01.363-.348 3.47 3.47 0 00-.363.038 1.173 1.173 0 00-.306.062l-.167-.03a.587.587 0 01-.364-.16 2.554 2.554 0 01-.185-.294c-.033-.054-.088-.085-.102-.143a.423.423 0 01.076-.457.226.226 0 01-.102 0 .677.677 0 01-.163-.093v-.027c.036-.062.12-.186.189-.186h.025c.019.008.04.008.058 0a.45.45 0 00.135-.046s.138-.213.142-.225c.004-.011 0-.02 0-.02l-.273-.053s-.153-.151-.138-.202a.044.044 0 01.029 0h.069a.897.897 0 00.473.016l.098-.085c0-.027 0-.062-.058-.109a1.405 1.405 0 01-.251-.302l.022.02c.149.084.31.143.476.174l.247-.066.073-.046.066-.04c0-.026 0-.05-.044-.069a.544.544 0 01-.156-.1 1.964 1.964 0 01-.226-.233c.046.034.093.065.142.093.135.066.278.112.426.136l.072-.059a.472.472 0 01.193-.089h.138l.131-.019h.193l.142-.046.727-.128c.24-.047.476-.093.684-.143a2.68 2.68 0 00.487-.151c.342-.095.674-.225.993-.388a12.79 12.79 0 001.16-.712c.3-.175.59-.37.869-.58a5.55 5.55 0 00.451-.407c.139-.126.261-.27.364-.43a2.11 2.11 0 00.28-1.053v-.264a2.396 2.396 0 00-.164-.519 1.44 1.44 0 00-.473-.62 1.448 1.448 0 00-.683-.259c-.14-.02-.281-.03-.422-.03-.278.02-.554.07-.822.15a6.578 6.578 0 00-.924.388 6.677 6.677 0 00-1.265.863 8.941 8.941 0 00-1.539 1.502c-.42.477-.795.995-1.12 1.55l-.04.069-.127.124a.462.462 0 00-.2.19v.019a1.076 1.076 0 00-.287.24s-.059.066-.084.097c-.138.088-.268.19-.389.302a2.048 2.048 0 00-.364.201c-.022 0-.073.023-.109.039a2.59 2.59 0 01-.276.124c-.186.058-.382.085-.604.162-.222.078-.629.295-.727.306-.099.012-.237 0-.306.02h-.193c-.152.03-.303.072-.451.124l-.149.027a.928.928 0 01-.134 0c-.088-.031-.168-.082-.248-.109-.134-.046-.221-.093-.254-.197a.282.282 0 000-.136c-.026-.046-.04-.05-.04-.05a.401.401 0 00.058-.12.596.596 0 00-.022-.14 3.46 3.46 0 01-.531.48.834.834 0 01-.389.171.887.887 0 01-.189 0l.055.159a1.033 1.033 0 01-.328.042.845.845 0 01-.232-.027c-.102-.035-.08-.081-.08-.081l.487-.12.069-.132-.12-.112-.455-.108.364-.155-.796-.306c.008.15.033.298.076.441l-.04.05c-.032.04-.063.081-.091.124a2.778 2.778 0 00-.145.302s-.08.124-.088.144c-.047.097-.091.17-.134.248 0 0-.12.185-.124.185-.13.186-.252.379-.364.577a2.892 2.892 0 00-.272.581.738.738 0 00-.037.364.905.905 0 01-.029.593l-.073.05-.072.05-.149.109-.073.058-.146.12c-.051.038-.094.081-.141.124l-.066.062-.124.135-.058.07-.102.135a.965.965 0 00-.072.113c-.043.07-.078.143-.106.22a1.651 1.651 0 00-.116.477c0 .054.029.096.029.158.004.198-.012.395-.047.589 0 .133-.024.265-.073.387a.17.17 0 01-.026.027.461.461 0 00-.043.047 1.72 1.72 0 01.509-.082c.09 0 .18.007.269.024.244.05.407.139.433.34h-.051c0 .05.04.17.095.19.021-.046.163-.12.181-.14a.248.248 0 00.044-.046l.029-.058a.484.484 0 01.142-.097 2.15 2.15 0 01.538-.356h.077a.487.487 0 01.25-.143h.022a.284.284 0 01.069 0 .2.2 0 01.131.05c.022.07.131.027.189.05.059.024.088.093.139.14.138.128.309.22.436.348l.062.062c.074.099.158.188.251.268a.59.59 0 01.134.147.53.53 0 00.157.096c.021.022.04.045.058.07v.097c-.026.066-.051.135 0 .178a.41.41 0 01-.026.12 1.15 1.15 0 00-.018.143v.306a1.5 1.5 0 000 .19c.009.108.03.214.062.317a4.3 4.3 0 00.727 1.232c.302.36.648.673 1.03.933.368.308.781.551 1.222.72a3.232 3.232 0 001.883.035c.18-.05.353-.125.513-.225.109-.058.229-.112.32-.166.262-.154.491-.362.677-.612l.094-.143.04-.078.033-.077.029-.078c0-.027.018-.054.025-.08a.452.452 0 00.044-.125v-.174c.022-.62-.389-.93-.753-1.162-.363-.232-.727-.414-1.091-.611-.025 0-.305-.163-.753-.387a6.787 6.787 0 00-.792-.388h-.295a1.34 1.34 0 00-.414-.143.698.698 0 01-.193-.081c-.033-.043-.044-.086-.08-.132-.168 0-.477.081-.669.097h-.375c.165-.16.359-.283.571-.36.062 0 .08-.023.069-.027h-.145c-.162.023-.318.08-.459.166a.6.6 0 01-.145.078c.034-.048.07-.093.109-.136.1-.087.209-.162.324-.225a.61.61 0 00.403-.24v-.019h-.418a.964.964 0 00-.244.062l-.272.116-.469.182-.059.02c.177-.17.377-.308.593-.41a1.89 1.89 0 01.546-.237.182.182 0 01.102 0v-.078a.216.216 0 010-.216c.044-.07.1-.132.163-.182.203-.13.419-.233.644-.31.16-.074.324-.143.48-.205.156-.062.338-.132.491-.202.153-.07.305-.166.451-.224.155-.104.33-.168.513-.186.218 0 .683-.039.992-.078l.324-.042c.161-.036.324-.06.487-.074.11 0 .179.031.313.039.123-.004.246.012.364.046.153.05.303.112.447.186.191.138.399.246.618.322.89.22 1.805.308 2.717.26h.044c.39-.01.78-.043 1.167-.098a8.761 8.761 0 001.517-.325 2.778 2.778 0 001.571-1.034 1.82 1.82 0 00.294-.774.994.994 0 00-.118-.689.895.895 0 00-.529-.415z" fill="#fff"/><path d="M137.221 4.863c.035.21.116.408.237.577.128.188.305.333.509.414.265.11.549.155.833.132h.113s-.142-.062-.364-.14a1.748 1.748 0 01-.327-.143h.68a3.41 3.41 0 01-.637-.15l-.131-.07.542.042a2.255 2.255 0 01-.065-.244c.095.023.193.035.291.035.346-.009.685-.11.986-.293.301-.183.554-.443.737-.756.36-.414.664-.879.902-1.382.056-.114.105-.232.146-.353a4.28 4.28 0 00.225-1.204 1.304 1.304 0 00-.222-.755 1.059 1.059 0 00-.574-.5 1.981 1.981 0 00-.447-.073 3.468 3.468 0 00-.699.085 3.082 3.082 0 00-1.523.93 1.602 1.602 0 00-.215.286 2.774 2.774 0 00-.167.287c-.186.376-.35.764-.491 1.161a11.16 11.16 0 00-.164.527c0 .004-.069.267-.076.286a2.86 2.86 0 00-.12.995 1.95 1.95 0 00.021.306zm-2.088 8.956c.032-.085.131-.186.167-.275-.04 0-.029-.116 0-.155a1.314 1.314 0 00-.582-.228 1.026 1.026 0 00-.498.039l-.146.073c.134-.029.272-.036.408-.023h.018c.418.058.498.329.498.329a3.536 3.536 0 00-.542-.155h-.043a2.352 2.352 0 00-.542.046l-.4.128c.266-.035.535-.044.803-.027a.62.62 0 01.106.027c.149.064.283.165.389.294a1.048 1.048 0 00-.495-.185h-.156a2.26 2.26 0 00-.847.14 1.78 1.78 0 00-.622.336l-.048.046a2.818 2.818 0 00-.531.709 3.221 3.221 0 00-.429 1.467c-.005.236.022.47.08.697.043.26.173.494.367.657a.966.966 0 00.684.23c.341.042.685-.038.978-.226.294-.189.52-.475.644-.815.124-.303.211-.57.32-.856 0 0 .102-.244.149-.387.048-.144.095-.225.128-.322.109-.26.183-.535.222-.817a.65.65 0 000-.14.74.74 0 00-.12-.305c0-.102.013-.204.04-.302z" fill="#fff"/><path d="M149.829 4.038L149.793 4l.185-.17.037.042s0 .02.036 0c-.062.066-.138.112-.222.166zm.368-.247h-.102l-.036-.046.134-.12a.897.897 0 00.084.089l-.08.077zm.286-.229c-.033-.042-.059-.085-.077-.112l.142-.12a.35.35 0 00.033.043h.094c-.061.07-.123.131-.192.19zm.264-.255h-.102l-.04-.039.099-.085.072.085-.029.039zm.239-.267a.504.504 0 01-.063.081l-.06-.074.126-.104.022.03-.025.067zm.159-1.015a.787.787 0 00-.283.035c-.037 0-.077.027-.073.058.004.03.073 0 .109.023.099 0 .196.025.284.074a1.67 1.67 0 01-.022.36.661.661 0 00-.36-.218.635.635 0 00-.411.047c-.044 0-.08.035-.076.07.003.035.08 0 .116 0a.466.466 0 01.298.052c.092.05.167.13.215.227a6.511 6.511 0 00-.258.209.732.732 0 00-.87-.14c-.047 0-.09.043-.083.078.007.035.091 0 .134 0a.54.54 0 01.324.039.582.582 0 01.251.22 9.18 9.18 0 01-.291.248.824.824 0 00-.978-.07c-.051 0-.095.05-.088.086.008.035.102 0 .146 0 .138-.031.516-.062.658.232l-.364.33a.915.915 0 00-1.043 0c-.055.022-.098.057-.088.092.011.035.106 0 .153-.023.146-.043.542-.1.709.186-.101.089-.236.197-.363.317l-.026-.02a1.133 1.133 0 00-1.236.167.235.235 0 00-.062.047l-.204-.031a33.234 33.234 0 013.71-2.92c.03.073.054.148.072.225zm-.643-.503a.055.055 0 00.069 0 .052.052 0 00.023-.022.071.071 0 00.01-.032.36.36 0 000-.047c0-.023 0-.046-.026-.066h.029a1 1 0 01.208.113l.051.042a.084.084 0 000 .039.266.266 0 000 .089v.02l-.273.181a.274.274 0 00-.073-.089.047.047 0 00-.025-.007.051.051 0 00-.026.007.064.064 0 00-.022.021.076.076 0 00-.011.03.512.512 0 000 .135l-.334.236a.465.465 0 00-.08-.089.051.051 0 00-.026-.007.047.047 0 00-.025.007.045.045 0 00-.021.019.054.054 0 00-.008.028c-.002.05.004.1.018.147l-.429.313c-.026 0-.062-.054-.095-.077a.049.049 0 00-.023-.006.053.053 0 00-.024.006.102.102 0 00-.044.054.246.246 0 000 .054.556.556 0 00.044.09l-.509.387a.328.328 0 01-.131-.062s-.055-.031-.073-.024a.12.12 0 00-.047.062.27.27 0 00.055.024.404.404 0 00.061.093c-.232.185-.469.387-.705.576a1.03 1.03 0 00-.189-.073.067.067 0 00-.037 0 .08.08 0 00-.04.05.36.36 0 000 .047.123.123 0 000 .027c.019.033.04.066.062.097-.247.209-.516.457-.778.697a1.077 1.077 0 01-.484-.283c.178-.155.364-.306.535-.45a.424.424 0 00.025.094v.023a.1.1 0 00.044.023h.025a.061.061 0 00.023-.015.069.069 0 00.014-.024.107.107 0 000-.05c0-.066 0-.128.018-.19.254-.209.513-.418.767-.615.004.03.011.058.022.085l.018.023a.066.066 0 00.033 0 .063.063 0 00.033 0 .056.056 0 00.025-.021.056.056 0 00.011-.033 1.47 1.47 0 00.026-.21l.556-.417a.308.308 0 00.033.093.084.084 0 00.04.042.043.043 0 00.022.006.042.042 0 00.021-.006c.04-.023.04-.1.04-.1v-.16l.506-.293a.273.273 0 00.054.089h.026a.087.087 0 00.044 0 .067.067 0 00.027-.026.077.077 0 00.009-.036 1.141 1.141 0 000-.144l.404-.275c.02.043.054.077.094.097a.087.087 0 00.044 0 .067.067 0 00.027-.025.077.077 0 00.009-.037.161.161 0 000-.062l-.022-.062c.106-.073.218-.143.324-.213.013.03.03.057.051.082zm-4.103 2.404a2.28 2.28 0 00.553-1.05c.131-.123.269-.235.404-.34.072-.066.174-.147.291-.236-.034.23-.104.45-.208.654-.036.07-.163.21-.116.233.047.023.109-.055.163-.132a2.09 2.09 0 00.47-.972c.145-.102.296-.196.451-.283-.02.188-.068.371-.142.543-.029.065-.142.2-.095.22.047.02.098-.058.149-.131.152-.223.26-.476.317-.744.138-.066.28-.131.425-.193-.016.116-.043.23-.08.34-.025.066-.12.202-.073.213.048.012.091-.058.135-.131a2.13 2.13 0 00.207-.492c.117-.048.239-.08.364-.097l-.025.093c-.022.062-.117.198-.073.21.043.01.094-.059.134-.133.04-.067.075-.137.106-.209h.047c.079-.016.16-.024.24-.023a.033.033 0 00-.006.02c0 .007.002.013.006.019a.078.078 0 00.066-.035h.174a32.125 32.125 0 00-3.869 2.838.827.827 0 01-.059-.135l.044-.047zm-1.794 11.562c.058.046.109.09.153.132l-.211-.07.058-.062zm-.19-.143l.058.042-.084.097-.174-.058.058-.066.12-.027.022.012zm-.276-.167l.174.1h-.058a.13.13 0 00-.044.032l-.058.062-.145-.058c.04-.035.087-.085.131-.136zm-.145-.078l-.146.171-.149-.066c.055-.062.062-.07.098-.085l.16-.035.037.016zm-.35-.193c.076.039.153.078.226.12h-.106l-.04.031-.076.082-.168-.09a2.75 2.75 0 01.164-.143zm-.156-.085a2.913 2.913 0 01-.164.166l-.16-.1a.37.37 0 01.084-.074l.16-.03.08.038zm-.415-.209l.232.116h-.069a.183.183 0 00-.051.035.597.597 0 01-.076.07l-.164-.117.128-.104zm-.244-.123l.094.046-.131.112c-.04-.046-.076-.066-.112-.112l.149-.047zm-.328-.163c.043.023.086.049.127.077h.08-.047a.22.22 0 00-.048.031 2.182 2.182 0 01-.156-.162l.044.054zm-1.004.232a.444.444 0 00.084-.031l.363-.117h.073l.087-.019c.024.046.051.09.08.132l.051.058c.051.054.102.108.153.155l.051.042a1.484 1.484 0 01-.829.268c-.048 0-.106-.035-.153 0-.047.034-.018.057.025.065.044.008.411.178 1.113-.209l.106.078.069.05.127.085.04.027a1.803 1.803 0 01-.811.31c-.055 0-.127 0-.171.031-.044.031 0 .054.047.058.393.05.79-.054 1.117-.29l.12.062.087.046.127.062a2.003 2.003 0 01-.727.337c-.058 0-.149 0-.182.058-.032.058 0 .043.073.035a1.864 1.864 0 001.036-.34l.128.053.098.039.098.035c-.197.15-.415.266-.647.34-.058.024-.164.028-.186.074-.021.047.029.039.091.027.339-.05.663-.182.946-.387.036 0 .073.027.109.035l.109.035.102.03h.062a2.152 2.152 0 01-.626.357c-.054.027-.167.039-.189.085-.022.047.044.035.105.02a2.2 2.2 0 00.921-.388l.083.024h.073a.723.723 0 010 .131.846.846 0 010 .1 2.201 2.201 0 01-.313.206c-.054.035-.174.066-.178.108-.004.043.062 0 .127 0 .066 0 .164-.058.309-.127a1.248 1.248 0 01-.189.294c-1.563-.283-3.04-.972-3.6-1.793.125-.104.264-.188.411-.251z" fill="#000"/><path d="M140.732 15.244h.036c.051-.023.102-.039.153-.058a2.677 2.677 0 00.458.43.753.753 0 00-.087.058l-.029.03a.062.062 0 000 .028c0 .02 0 .039.047.023.048-.016.142-.046.197-.062.149.102.303.195.462.279a.712.712 0 00-.091.066.173.173 0 00-.029.03v.032a.102.102 0 00.058 0h.036l.055-.024.098-.035c.148.075.304.145.469.21a.483.483 0 00-.084.089s0 .038.069.023a.883.883 0 00.15-.074c.149.054.309.109.472.16a.474.474 0 00-.069.1v.023c0 .023.029.035.077 0a.725.725 0 00.131-.09l.418.113a.58.58 0 00-.051.097.026.026 0 00-.002.015c0 .005.002.01.004.015a.042.042 0 00.01.01.037.037 0 00.013.006c.019.008.04.008.058 0h.019a.533.533 0 00.112-.085l.513.113a.327.327 0 00-.036.085.062.062 0 000 .027l-.149.1-.157.086h-.116a.286.286 0 00.073-.101.044.044 0 00.002-.012.044.044 0 00-.002-.011c0-.02-.048-.023-.084 0a.579.579 0 00-.164.097l-.392-.093a.294.294 0 00.072-.097.027.027 0 00.005-.018.027.027 0 00-.005-.017.09.09 0 00-.054 0 .8.8 0 00-.171.09c-.153-.044-.302-.082-.444-.129a.331.331 0 00.073-.104v-.031c0-.004-.029 0-.051 0a1.377 1.377 0 00-.167.089 7.648 7.648 0 01-.502-.178c0-.031.047-.066.062-.1 0-.032-.026-.036-.066-.028a.428.428 0 00-.138.093 5.245 5.245 0 01-.502-.232c0-.024 0-.055.026-.082a.25.25 0 01.029-.05s-.026-.031-.059-.023h-.025a.171.171 0 00-.044.027l-.083.081a3.703 3.703 0 01-.538-.36c.021-.046.061-.108.083-.155a.202.202 0 000-.035c0-.023 0-.035-.029-.035h-.051l-.04.027-.087.078a.45.45 0 01-.08-.267c.04-.093.087-.167.138-.244zm-.318.631c.654.662 1.818 1.108 3.32 1.39a.914.914 0 01-.226.085l-.12.031a.347.347 0 00-.08-.104.08.08 0 00-.098-.023c-.047.027 0 .096 0 .124a.126.126 0 010 .038c-.144.026-.29.04-.436.043a.437.437 0 00-.095-.387.093.093 0 00-.116-.02c-.055.031 0 .097.025.128a.565.565 0 010 .271 2.854 2.854 0 01-.472-.073.535.535 0 00.022-.27.508.508 0 00-.113-.242.111.111 0 00-.128 0c-.061.04.022.082.033.117a.53.53 0 010 .36h-.022a4.313 4.313 0 01-.472-.182.47.47 0 00-.059-.527.099.099 0 00-.059-.038.096.096 0 00-.068.011c-.062.039.018.085.026.12a.635.635 0 01-.037.337 3.076 3.076 0 01-.454-.29.405.405 0 00-.033-.523.097.097 0 00-.124-.023c-.062.034 0 .08.022.116a.605.605 0 01-.036.298 6.452 6.452 0 01-.273-.217 1.649 1.649 0 01.073-.55zm12.268-5.726c-.025-.039-.065-.062-.101-.031-.037.03-.019.05 0 .081-.113.05-.233.1-.364.147a.515.515 0 00-.16-.228.09.09 0 00-.124 0c-.047.038.04.081.055.12a.541.541 0 01.047.182l-.382.104a.54.54 0 00-.074-.248.499.499 0 00-.18-.178.123.123 0 00-.142 0c-.051.047.054.082.076.116a.651.651 0 01.087.388c-.181.038-.363.07-.556.096a.55.55 0 00-.068-.328.493.493 0 00-.245-.214.141.141 0 00-.167 0c-.055.05.069.086.098.124.08.137.116.297.102.457a10.44 10.44 0 01-.782.074.605.605 0 00-.142-.366.542.542 0 00-.327-.188.193.193 0 00-.196.023c-.059.058.09.074.13.109a.614.614 0 01.208.43h-.433a.956.956 0 01-.287-.155.779.779 0 01-.306-.492 20.87 20.87 0 014.488-.12.61.61 0 00-.255.097zm.734-.619a1.988 1.988 0 00-.153.162c-.116 0-.232-.027-.363-.035a.855.855 0 00.076-.163v-.05a.1.1 0 00-.065.027c-.055.054-.108.11-.157.17l-.469-.027a.975.975 0 01.055-.158v-.04a.093.093 0 00-.039.002.092.092 0 00-.034.018.81.81 0 00-.138.182h-.586a.424.424 0 010-.159v-.065a.102.102 0 00-.08.027.163.163 0 00-.033.03l-.018.028a.974.974 0 00-.073.14c-.283 0-.57 0-.872.034a.968.968 0 000-.201s0-.02-.022-.024a.084.084 0 00-.066.02.22.22 0 00-.065.07 1.448 1.448 0 00-.073.139c-.444.03-.909.077-1.393.135v-.096c0-.04 0-.078-.036-.093a.104.104 0 00-.069.019.225.225 0 00-.047.046l-.019.031a.644.644 0 00-.054.128l-.135.02c.031-.192.092-.377.182-.546.437-.066.862-.12 1.273-.16a.892.892 0 00-.076.105.16.16 0 000 .031.107.107 0 000 .05.023.023 0 00.021 0c.019.006.04.006.059 0a.233.233 0 00.058-.042l.189-.166c.338-.027.665-.05.985-.062l-.072.097a.143.143 0 00-.018.038.064.064 0 000 .039.032.032 0 00.009.012.032.032 0 00.012.007.101.101 0 00.073-.027c.073-.05.156-.131.222-.186h.665c-.031.037-.06.076-.087.117a.36.36 0 000 .046.123.123 0 000 .027.037.037 0 00.003.021.034.034 0 00.015.014.102.102 0 00.042-.011.117.117 0 00.035-.028h.018c.051-.05.109-.1.164-.147l.523.02a.64.64 0 00-.08.139.203.203 0 000 .035c0 .007.002.014.006.02a.03.03 0 00.016.01s.051 0 .076-.034a1.9 1.9 0 00.153-.159l.429.039a.622.622 0 00-.08.182s0 .027.018.03a.08.08 0 00.077-.031.655.655 0 00.069-.077l.065-.089.142.02a1.28 1.28 0 01-.258.348zm-4.607-.547a7.89 7.89 0 01.523-.596c.084-.06.164-.124.24-.193.262-.031.52-.05.771-.062a3.723 3.723 0 01-.643.418c-.077.038-.244.077-.255.128-.011.05.073.023.16 0 .375-.115.727-.3 1.04-.546h.884a3.593 3.593 0 01-.517.313c-.069.031-.214.062-.225.109-.011.046.065.027.145 0a2.87 2.87 0 00.83-.41c.123 0 .251.019.363.034l.186.023a2.864 2.864 0 01-.364.205c-.065.031-.204.059-.211.105-.007.047.062.027.135 0a2.51 2.51 0 00.622-.283c.163.027.305.062.436.097l-.131.078c-.062.03-.196.062-.2.108-.004.047.066.023.135 0 .111-.042.22-.09.327-.143l.171.07.113.058c-.048.023-.088.046-.091.07-.004.022.069.019.142 0h.025a.374.374 0 01.185.255 19.168 19.168 0 00-4.796.162zM140.891.542a.636.636 0 01.16.047.37.37 0 01.207.193c-.08.098-.155.2-.225.306-.051.085-.076.163 0 .155.076-.008.149-.163.215-.232l.09-.097a.87.87 0 01.091.317 3.37 3.37 0 00-.578.674c-.051.081-.08.159 0 .151.08-.008.149-.162.215-.228a4.74 4.74 0 01.363-.36c-.016.17-.045.338-.087.503a3.384 3.384 0 00-.884.902c-.051.081-.08.155-.018.151.062-.004.153-.155.218-.224.187-.196.389-.373.604-.53l-.022.061a3.302 3.302 0 01-.12.306c-.054.116-.123.244-.2.387a3.59 3.59 0 00-.491.43 3.126 3.126 0 00-.269-.128 6.94 6.94 0 00.731-2.784zm-1.082 1.712h-.171c.058-.186.106-.388.146-.55a.77.77 0 00.221-.132.22.22 0 00.03-.03c0-.024 0-.055-.033-.055h-.044a.95.95 0 00-.156.043 6.34 6.34 0 00.058-.419 1.5 1.5 0 00.171-.104.173.173 0 00.054-.054V.929c0-.023-.018-.034-.043-.034h-.022a1.07 1.07 0 00-.156.05V.627c.065-.023.127-.05.192-.07a2 2 0 01.208-.042.903.903 0 01.236 0v.352a1.048 1.048 0 00-.189.105.4.4 0 00-.051.046c0 .028 0 .04.029.04.03.005.061.005.091 0l.106-.02a5.48 5.48 0 01-.073.46c-.07.03-.137.067-.2.109a.131.131 0 00-.051.05c0 .024 0 .035.029.039a.344.344 0 00.084 0h.105c-.047.201-.102.387-.167.608-.07.048-.141.092-.215.132a.29.29 0 00-.047.042v.054a.087.087 0 00.054 0 .734.734 0 00.157-.05 6.46 6.46 0 01-.251.616c0 .038-.029.066-.044.097a2.384 2.384 0 00-.382-.097l.055-.031.055-.047c0-.023 0-.038-.03-.042h-.04a.465.465 0 01-.13-.031c.077-.162.143-.329.2-.5a.649.649 0 00.218-.104.214.214 0 00.04-.04c-.008-.022 0-.05-.044-.05zm-1.785.642l.022-.07c.24-.035.485.003.705.109.03.023.022.108.099.081a.082.082 0 00.051-.04.094.094 0 00.007-.068c0-.082-.106-.345-.768-.322.051-.124.106-.255.164-.387.228-.05.465-.038.687.035.04 0 .059.093.135.054.076-.038.055-.073.029-.104-.025-.031-.196-.252-.749-.21.029-.054.055-.112.08-.162a2.19 2.19 0 01.131-.228c.164-.029.331-.029.494 0 .055 0 .11.05.171 0 .062-.05.026-.062 0-.082a.854.854 0 00-.505-.108l.029-.035c.149-.166.319-.31.505-.426.066-.046.136-.086.208-.12a6.478 6.478 0 01-.513 2.23 4.577 4.577 0 00-.764 0l-.262.035c.012-.061.026-.122.044-.182zm-5.252 11.86c.058-.027.12-.05.186-.073a.839.839 0 01-.051.073 2.952 2.952 0 01-.364.345 2.55 2.55 0 01.229-.345zm.375 1.309h.116a3.876 3.876 0 00-.062.387.565.565 0 00-.105.046l-.029.02v.023s0 .039.029.039h.112a3.28 3.28 0 000 .314.65.65 0 00-.138.08v.02s0 .043.037.039a.514.514 0 00.109-.027c.008.08.02.158.036.236l-.098.062a.065.065 0 00-.033.03.09.09 0 000 .024s.026.023.047 0a.468.468 0 00.113-.027v.054c-.137.04-.279.061-.422.062v-.073a.535.535 0 00.113-.062.07.07 0 00.029-.027s0-.027-.018-.027h-.146c0-.082-.025-.17-.032-.256a.742.742 0 00.123-.066s.026-.02.029-.03c.004-.012 0-.028 0-.028h-.138a2.202 2.202 0 010-.345c.018-.019.08-.046.124-.077a.047.047 0 00.029-.031c0-.02 0-.031-.018-.039h-.033l-.102.031c.018-.145.045-.288.08-.43a.848.848 0 01.149-.112h.022a.07.07 0 00.033-.035.025.025 0 00.007-.008.021.021 0 000-.022.025.025 0 00-.007-.008h-.076l-.088.034c.066-.218.145-.431.237-.639.061-.05.134-.061.2-.12a.079.079 0 00.029-.03.03.03 0 00.004-.014.031.031 0 00-.004-.014.284.284 0 00-.077 0l-.094.031.091-.17c.036-.074.076-.151.12-.228.139-.046.282-.084.425-.113-.054.101-.113.202-.16.306-.047.105-.134.287-.189.422l-.08.02a.073.073 0 00-.036 0l-.04.027a.078.078 0 00-.022.03v.032a.344.344 0 00.105.03c-.06.162-.111.328-.152.496l-.088.024-.04.019h-.029a.069.069 0 00-.025.03s0 .09.033.09z" fill="#000"/><path d="M134.62 14.954c-.32.054-.432-.132-.454-.206-.022-.073 0-.088-.044-.077a.075.075 0 00-.036.03.085.085 0 00-.011.047c0 .074-.055.407.458.423-.025.062-.047.116-.062.162l-.036.097-.044.128v.046c-.327.09-.458-.081-.491-.147-.032-.066 0-.077-.043-.062a.055.055 0 00-.03.026.062.062 0 00-.007.04c0 .062-.018.356.473.34h.018a1.1 1.1 0 01-.036.082 5.916 5.916 0 01-.098.267.445.445 0 01-.433-.116c-.022 0-.022-.066-.066-.05a.048.048 0 00-.015.01.049.049 0 00-.009.017c-.003.007-.003.013-.003.02a.06.06 0 00.006.018c0 .05.065.275.461.272l-.094.255a.525.525 0 01-.342-.077c-.025 0-.04-.054-.076-.039a.034.034 0 00-.011.012.032.032 0 00-.004.017c0 .006.001.011.004.017a.032.032 0 00.011.012.411.411 0 00.157.15.39.39 0 00.206.044 1.48 1.48 0 01-.109.22.441.441 0 01-.156-.038c-.029 0-.047-.043-.084-.024-.036.02-.022.035 0 .05a.39.39 0 00.153.117 1.065 1.065 0 01-.255.252c-.189-.709 0-1.55.437-2.467l.145-.279a.549.549 0 01.029-.042c.198.046.383.138.542.27-.014.07-.032.128-.051.183z" fill="#000"/></symbol><symbol id="cross-usage" viewBox="0 0 10 10"><path fill-rule="evenodd" clip-rule="evenodd" d="M5 6.414L1.708 9.707.294 8.292 3.586 5 .293 1.707 1.707.292 5 3.586 8.293.292l1.415 1.415L6.415 5l3.292 3.292-1.414 1.415L5 6.414z"/></symbol><symbol id="fb-usage" viewBox="0 0 11 19"><path d="M9.953.004L7.528 0C4.803 0 3.042 1.803 3.042 4.594v2.118H.604a.38.38 0 00-.381.38v3.07c0 .21.17.38.381.38h2.438v7.744c0 .21.171.38.382.38h3.181c.21 0 .382-.17.382-.38v-7.744h2.85a.38.38 0 00.382-.38l.001-3.07a.38.38 0 00-.381-.38H6.987V4.916c0-.863.206-1.3 1.332-1.3l1.634-.001c.21 0 .38-.17.38-.38V.384c0-.21-.17-.38-.38-.381z"/></symbol><symbol id="logo-usage" viewBox="0 0 100 18"><path d="M94.289 4.211c-1.474 0-3.369.21-3.606.21v13.105h2.921v-4.473c.427.07.858.105 1.29.105 2.684 0 4.737-1.763 4.737-4.447 0-3.052-2.263-4.5-5.342-4.5zm.263 6.5a2.648 2.648 0 01-.948-.152V6.844c.152-.026.659-.026.948-.026 1.29 0 2.158.63 2.158 1.946 0 1.264-.894 1.947-2.158 1.947zm-9.946 2.216h2.816v-2.532h-2.816v-3.4h3.422V4.369h-6.292v13.158h6.5v-2.631h-3.63v-1.968zm-10.632-2.111V4.368h-2.868v13.158h2.868v-4.259h.526l3.369 4.259h1.216v-3.053c-.58-.789-1.342-1.79-1.869-2.526.344-.997.81-2.447 1.104-3.447l1.237-4.132h-3.005l-1.947 6.446-.631.002zm-34.13 3.21c-1.052 0-2.763-.973-2.763-3.08 0-2.106 1.708-3.077 2.763-3.077v6.157zM29.631 0l-3.525 2.026V3.13h4.579V0H29.63zm-.342 13.816v3.711h2.89V4.367h-2.89V9.69l-1.915 2.495h-.473c.053-1.58.152-4.29.152-5.816V4.368h-2.89v13.158h1.553l3.106-3.711.467.001zm-27.42-4.42c0 2.63-.348 5.236-1.869 5.787V18c3.553-.368 4.658-3.473 4.658-8.106V6.691h1.895v10.842h2.89V4.368H1.869v5.027zm40.789-1.521c1.052 0 2.763.973 2.763 3.08 0 2.105-1.71 3.071-2.763 3.071V7.875zm0 8.448c3.157 0 5.685-2.212 5.685-5.369 0-3.157-2.526-5.368-5.685-5.368V3.79h-2.814v1.788c-3.157 0-5.684 2.211-5.684 5.369 0 3.157 2.526 5.368 5.684 5.368v1.578h2.814v-1.57zm10.341-8.421c-.532-1.058-1.315-2.48-1.9-3.534h-1.264v3.605l1.657 2.738-1.887 3.184v3.632h1.264l2.129-4h.552l2.129 4h1.264v-3.632l-1.89-3.184 1.657-2.738V4.368h-1.262c-.58 1.052-1.369 2.474-1.895 3.526l-.554.008zm13.003-3.534h-4.501l-3.527 13.158h2.947l.58-2.318h4.501l.58 2.316h2.947L66.002 4.368zm-.634 8.422h-3.236l1.343-5.553H64l1.367 5.553zM19.052 4.368h-4.5l-3.526 13.158h2.947l.58-2.318h4.5l.579 2.316h2.947L19.052 4.368zm-.63 8.422h-3.239l1.343-5.553h.527l1.368 5.553z" fill="currentColor"/></symbol><symbol id="repeat-usage" viewBox="0 0 40 40"><path d="M22.716 2.716C13.188 2.716 5.44 10.472 5.44 20v.057l-3.42-5.152a1.104 1.104 0 00-1.527-.31 1.104 1.104 0 00-.31 1.527l4.963 7.47c.18.27.466.44.784.482.05.008.09.008.139.008.27 0 .53-.098.735-.286l6.899-6.213c.449-.408.49-1.102.081-1.56a1.108 1.108 0 00-1.56-.08l-4.58 4.138V20c0-8.32 6.76-15.08 15.072-15.08 8.311 0 15.08 6.76 15.08 15.08s-6.76 15.08-15.072 15.08a14.95 14.95 0 01-10.654-4.418 1.099 1.099 0 00-1.56 0 1.099 1.099 0 000 1.56 17.156 17.156 0 0012.214 5.062C32.244 37.284 40 29.536 40 20c0-9.536-7.756-17.284-17.284-17.284z" fill="currentColor"/></symbol><symbol id="scrollDownElArrow-usage" viewBox="0 0 12 26"><path d="M6 25.333L.667 20h4V0h2.666v20h4L6 25.333z" fill="#FFCD00"/></symbol><symbol id="scrollDownElText-usage" viewBox="0 0 120 114"><path d="M40.963 94.052c-.366.583-.818 1.017-1.357 1.302a3.393 3.393 0 01-1.7.406 3.449 3.449 0 01-1.726-.545 4.67 4.67 0 01-1.133-.995 4.198 4.198 0 01-.72-1.245c-.18-.435-.247-.855-.2-1.26l-1.532 2.439c.13.516.413 1.043.85 1.582a6.65 6.65 0 001.65 1.433c.962.604 1.96.938 2.997 1.003a5.507 5.507 0 002.881-.571c.893-.46 1.642-1.17 2.246-2.132.595-.949.91-1.932.945-2.95a5.686 5.686 0 00-.724-2.863c-.517-.891-1.257-1.64-2.22-2.243a7.114 7.114 0 00-1.994-.885c-.675-.159-1.281-.171-1.82-.037l-1.518 2.42c.336-.205.737-.332 1.202-.38a4.197 4.197 0 011.434.107c.492.12.961.32 1.408.601.542.34.96.773 1.254 1.298.272.53.397 1.099.373 1.707-.032.623-.23 1.225-.596 1.808zm-17.802-8.313l9.567-5.51-1.27-2.205-9.566 5.51 1.27 2.205zm-3.294-5.72l6.323 1.842 2.992-7.788-1.57-2.725-3.003 7.768-6.323-1.842 1.581 2.745zm11.445-17.194l-16.32-.129-.02 2.616 16.32.13.02-2.616zm-10.727-9.229c-1.232-.01-2.282.23-3.15.72-.868.488-1.529 1.14-1.983 1.951a5.298 5.298 0 00-.717 2.659 4.44 4.44 0 00.392 1.923 4.291 4.291 0 001.165 1.473c.492.404 1.098.721 1.816.95.703.214 1.502.325 2.398.332.896.007 1.704-.09 2.426-.293a5.776 5.776 0 001.831-.921c.5-.413.887-.897 1.164-1.455a4.44 4.44 0 00.423-1.917c.008-.96-.21-1.85-.65-2.67-.458-.819-1.117-1.48-1.977-1.983-.86-.503-1.906-.76-3.138-.769zm-.021 2.688c.736.006 1.358.163 1.868.47.51.309.898.712 1.166 1.21.268.498.4 1.051.395 1.66a3.198 3.198 0 01-.225 1.126c-.163.366-.39.7-.68 1.002-.29.302-.652.547-1.085.736-.434.172-.93.256-1.49.252-.56-.005-1.056-.096-1.486-.276a3.325 3.325 0 01-1.075-.752 3.1 3.1 0 01-.64-1.014 2.92 2.92 0 01-.23-1.13 3.387 3.387 0 01.42-1.652c.277-.494.672-.89 1.186-1.19.515-.3 1.14-.448 1.876-.442zm2.74-12.237c.945.602 1.926.923 2.943.964a5.686 5.686 0 002.868-.706c.895-.51 1.643-1.239 2.245-2.184.61-.958.953-1.944 1.03-2.957a5.507 5.507 0 00-.586-2.878c-.459-.918-1.16-1.677-2.105-2.28-.958-.61-1.944-.924-2.956-.943a5.336 5.336 0 00-2.835.699c-.9.489-1.655 1.213-2.265 2.17-.602.945-.938 1.936-1.01 2.971a5.508 5.508 0 00.553 2.885c.454.896 1.16 1.65 2.118 2.26zm1.431-2.247c-.58-.37-1.009-.813-1.286-1.331a3.095 3.095 0 01-.4-1.65 3.15 3.15 0 01.517-1.661 3.15 3.15 0 011.287-1.172 3.095 3.095 0 011.664-.335c.587.032 1.17.233 1.75.603.581.37 1.017.818 1.307 1.344a3.32 3.32 0 01.4 1.65 3.284 3.284 0 01-.537 1.649 3.283 3.283 0 01-1.267 1.184 3.32 3.32 0 01-1.664.335c-.6-.04-1.19-.246-1.77-.616zm19.747-24.148l-9.122 4.344 2.941 6.176c.316.664.37 1.188.163 1.57-.2.361-.517.645-.95.851l1.011 2.124c.94-.447 1.632-.928 2.078-1.442.44-.528.67-1.107.688-1.736.013-.644-.167-1.356-.538-2.136l-2.064-4.334 4.528-2.157 3.715 7.8 2.297-1.093-4.747-9.967zm14.626-2.596L58 26.04l2.603.262 1.106-10.984-2.602-.262zm1.218 6.104l3.152.318c.382.038.694.134.936.287.26.139.442.326.546.561.123.222.169.484.138.786-.03.303-.128.558-.294.767a1.3 1.3 0 01-.65.465c-.266.086-.59.11-.972.07l-3.152-.317-.214 2.126 3.415.344c.764.076 1.462.01 2.094-.2a3.262 3.262 0 001.556-1.073c.405-.506.646-1.15.725-1.93.08-.795-.03-1.458-.33-1.986a3.068 3.068 0 00-1.32-1.267c-.581-.3-1.254-.488-2.018-.565l-3.415-.344-.197 1.958zM90.31 35.54l-.933.633 1.791 2.642c.18.265.3.512.359.743.072.221.096.427.071.618a.909.909 0 01-.15.507 1.16 1.16 0 01-.369.396c-.304.206-.654.26-1.05.161-.387-.086-.755-.387-1.106-.903l-1.79-2.642-1.59 1.077 2.236 3.298c.709 1.046 1.455 1.633 2.237 1.76.804.131 1.55-.037 2.239-.504.596-.404.96-.864 1.094-1.38.134-.515.096-1.07-.113-1.663-.208-.593-.528-1.207-.96-1.843l-1.965-2.9zm-.397.27l1.832 2.7c.386.57.816 1.033 1.289 1.389.495.36 1.007.573 1.536.64.542.058 1.07-.088 1.587-.438.596-.404.974-.873 1.134-1.407a2.883 2.883 0 00.014-1.69 5.343 5.343 0 00-.793-1.725l-1.831-2.702-1.59 1.077 1.657 2.444c.18.265.29.528.332.79.042.26.02.498-.067.712a1.072 1.072 0 01-.429.523 1.165 1.165 0 01-.504.197 1.147 1.147 0 01-.533-.016 1.676 1.676 0 01-.501-.27 2.043 2.043 0 01-.443-.482l-1.657-2.443-1.033.7zm3.92-4.485l-9.139 6.196 1.428 2.105 9.138-6.195-1.428-2.105zm3.307 21.208l.552 8.43 2.179-.143-.551-8.43-2.18.143zm6.759 6.63l-11.016.72.166 2.538 11.016-.72-.166-2.539zm-.534-8.167l-11.016.72.166 2.538 11.016-.72-.166-2.538zM94.21 83.748l2.795 1.641-3.637-13.243-2.795-1.641 3.636 13.243zm5.605-5.35l1.218-2.261-10.46-5.632 1.36 3.649 7.882 4.244zm-2.81 6.991l-1.372-3.628-7.882-4.244-1.206 2.24 10.46 5.632zm-16.934 7.297c-.808.489-1.423.998-1.846 1.528-.415.544-.647 1.077-.696 1.6-.064.53.045 1.02.326 1.467.306.487.734.823 1.284 1.007.545.206 1.154.258 1.827.156.66-.093 1.321-.348 1.985-.765.705-.442 1.25-.973 1.635-1.593a3.8 3.8 0 00.579-1.922 3.222 3.222 0 00-.516-1.859l-2.113 1.328c.136.217.21.454.22.712.006.28-.064.56-.21.84-.145.28-.387.526-.726.739-.284.178-.547.287-.787.325a1.157 1.157 0 01-.698-.073 1.072 1.072 0 01-.507-.447c-.187-.298-.227-.632-.119-1.001.108-.37.433-.726.975-1.066l-.613-.976zm-3.205-4.788c-.732.46-1.324.991-1.775 1.596-.443.618-.694 1.257-.752 1.917-.071.669.08 1.3.455 1.897.357.57.817.941 1.38 1.117.564.175 1.21.166 1.94-.027.728-.194 1.508-.56 2.34-1.102l-.676-1.077c-.42.264-.807.43-1.16.501-.366.079-.687.063-.964-.046a1.421 1.421 0 01-.683-.592 1.382 1.382 0 01-.223-.851 1.73 1.73 0 01.35-.843c.189-.27.473-.524.853-.763.582-.365 1.116-.493 1.601-.382.472.12.887.36 1.246.72l2.154-1.353c-.704-.88-1.593-1.409-2.666-1.584-1.088-.168-2.228.123-3.42.872z" fill="#FFCD00"/></symbol><symbol id="tw-usage" viewBox="0 0 21 18"><path d="M20.444 2.313a8.327 8.327 0 01-2.408.665A4.236 4.236 0 0019.88.643a8.418 8.418 0 01-2.665 1.025A4.168 4.168 0 0014.154.334c-2.316 0-4.194 1.892-4.194 4.223 0 .331.037.654.108.963-3.485-.176-6.575-1.858-8.644-4.414a4.216 4.216 0 00-.567 2.123 4.23 4.23 0 001.865 3.516 4.171 4.171 0 01-1.9-.53v.052a4.221 4.221 0 003.364 4.143 4.22 4.22 0 01-1.105.148c-.27 0-.532-.027-.79-.079a4.2 4.2 0 003.918 2.934A8.376 8.376 0 011 15.22c-.338 0-.672-.021-1-.058 1.856 1.2 4.06 1.9 6.429 1.9 7.715 0 11.932-6.436 11.932-12.019l-.014-.546a8.408 8.408 0 002.097-2.183z"/></symbol><symbol id="vk-usage" viewBox="0 0 22 13"><path d="M21.22 11.75a1.218 1.218 0 00-.07-.137c-.365-.658-1.061-1.464-2.089-2.42l-.022-.023-.01-.01-.011-.011h-.012c-.466-.446-.761-.745-.885-.899-.226-.292-.277-.587-.153-.887.087-.226.415-.704.984-1.434.299-.387.535-.697.71-.93 1.262-1.68 1.808-2.753 1.64-3.22l-.065-.11c-.043-.065-.156-.125-.338-.18-.183-.055-.416-.064-.7-.028l-3.15.022a.408.408 0 00-.218.006l-.142.033-.055.027-.044.033a.488.488 0 00-.12.115.75.75 0 00-.109.192 17.897 17.897 0 01-1.17 2.463c-.27.453-.517.845-.744 1.178a5.659 5.659 0 01-.568.733 3.957 3.957 0 01-.416.378c-.123.095-.218.135-.284.12a8.006 8.006 0 01-.186-.043.728.728 0 01-.246-.269 1.202 1.202 0 01-.125-.427 4.708 4.708 0 01-.039-.443 9.27 9.27 0 01.006-.526c.007-.226.01-.38.01-.46 0-.277.006-.578.017-.903l.027-.772c.008-.19.011-.39.011-.603a2.5 2.5 0 00-.038-.498 1.712 1.712 0 00-.114-.35.59.59 0 00-.225-.263 1.263 1.263 0 00-.366-.148c-.386-.088-.878-.135-1.476-.142-1.356-.015-2.227.073-2.613.263-.153.08-.292.19-.416.328-.13.16-.15.248-.054.263.437.065.747.222.929.47l.066.132c.05.095.102.263.153.504.05.24.084.507.098.8.036.532.036.988 0 1.368-.036.38-.07.675-.104.887a1.778 1.778 0 01-.147.515c-.066.131-.11.211-.132.24a.188.188 0 01-.054.055.818.818 0 01-.296.055c-.102 0-.226-.051-.371-.153a2.624 2.624 0 01-.454-.422 5.636 5.636 0 01-.53-.75 13.01 13.01 0 01-.613-1.139l-.175-.318a27.35 27.35 0 01-.448-.892 17.03 17.03 0 01-.503-1.133.722.722 0 00-.262-.35l-.055-.034a.748.748 0 00-.175-.093 1.16 1.16 0 00-.251-.071l-2.996.022c-.306 0-.514.07-.623.208l-.044.066a.355.355 0 00-.033.175c0 .08.022.179.066.296a36.33 36.33 0 001.426 2.978c.514.957.96 1.727 1.34 2.31.379.585.765 1.136 1.159 1.654.393.519.654.85.781.997.128.146.228.255.301.328l.274.263c.175.175.431.385.77.63.34.244.715.485 1.127.723.412.237.89.43 1.438.58a4.97 4.97 0 001.596.18h1.257c.255-.021.448-.102.58-.24l.043-.055a.727.727 0 00.082-.203c.026-.09.039-.191.039-.3a3.614 3.614 0 01.07-.85 2.25 2.25 0 01.187-.569 1.403 1.403 0 01.42-.482.725.725 0 01.088-.038c.175-.058.38-.002.618.17.237.172.459.383.667.635.208.252.457.535.749.849.291.314.546.547.765.7l.219.132c.146.088.335.168.569.241.232.073.436.091.612.055l2.799-.044c.276 0 .492-.046.645-.137.153-.091.244-.192.273-.301a.85.85 0 00.006-.373 1.384 1.384 0 00-.077-.29z"/></symbol></defs><view id="view-btnArrow-usage" viewBox="10 10 12.86 20"></view><view id="view-cordiant-usage" viewBox="50 10 172.22 20"></view><view id="view-cross-usage" viewBox="250 10 20 20"></view><view id="view-fb-usage" viewBox="290 10 11.58 20"></view><view id="view-logo-usage" viewBox="330 10 111.11 20"></view><view id="view-repeat-usage" viewBox="470 10 20 20"></view><view id="view-scrollDownElArrow-usage" viewBox="510 10 9.23 20"></view><view id="view-scrollDownElText-usage" viewBox="550 10 21.05 20"></view><view id="view-tw-usage" viewBox="610 10 23.33 20"></view><view id="view-vk-usage" viewBox="670 10 33.85 20"></view><use id="btnArrow-usage" xlink:href="#btnArrow-usage" width="12.86" height="20" x="10" y="10"></use><use id="cordiant-usage" xlink:href="#cordiant-usage" width="172.22" height="20" x="50" y="10"></use><use id="cross-usage" xlink:href="#cross-usage" width="20" height="20" x="250" y="10"></use><use id="fb-usage" xlink:href="#fb-usage" width="11.58" height="20" x="290" y="10"></use><use id="logo-usage" xlink:href="#logo-usage" width="111.11" height="20" x="330" y="10"></use><use id="repeat-usage" xlink:href="#repeat-usage" width="20" height="20" x="470" y="10"></use><use id="scrollDownElArrow-usage" xlink:href="#scrollDownElArrow-usage" width="9.23" height="20" x="510" y="10"></use><use id="scrollDownElText-usage" xlink:href="#scrollDownElText-usage" width="21.05" height="20" x="550" y="10"></use><use id="tw-usage" xlink:href="#tw-usage" width="23.33" height="20" x="610" y="10"></use><use id="vk-usage" xlink:href="#vk-usage" width="33.85" height="20" x="670" y="10"></use></svg>